<?xml version="1.0" encoding="UTF-8" standalone="no"?>
<svg
   xmlns:dc="http://purl.org/dc/elements/1.1/"
   xmlns:cc="http://creativecommons.org/ns#"
   xmlns:rdf="http://www.w3.org/1999/02/22-rdf-syntax-ns#"
   xmlns:svg="http://www.w3.org/2000/svg"
   xmlns="http://www.w3.org/2000/svg"
   xmlns:sodipodi="http://sodipodi.sourceforge.net/DTD/sodipodi-0.dtd"
   xmlns:inkscape="http://www.inkscape.org/namespaces/inkscape"
   width="530mm"
   height="215mm"
   viewBox="0 0 530 215"
   version="1.1"
   preserveAspectRatio="xMidYMid meet"
   id="svg883"
   sodipodi:docname="box.svg"
   inkscape:version="0.92.4 5da689c313, 2019-01-14">
  <metadata
     id="metadata889">
    <rdf:RDF>
      <cc:Work
         rdf:about="">
        <dc:format>image/svg+xml</dc:format>
        <dc:type
           rdf:resource="http://purl.org/dc/dcmitype/StillImage" />
        <dc:title />
      </cc:Work>
    </rdf:RDF>
  </metadata>
  <defs
     id="defs887" />
  <sodipodi:namedview
     pagecolor="#ffffff"
     bordercolor="#666666"
     borderopacity="1"
     objecttolerance="10"
     gridtolerance="10"
     guidetolerance="10"
     inkscape:pageopacity="0"
     inkscape:pageshadow="2"
     inkscape:window-width="1366"
     inkscape:window-height="720"
     id="namedview885"
     showgrid="false"
     inkscape:zoom="1.0859375"
     inkscape:cx="461.01699"
     inkscape:cy="593.16728"
     inkscape:window-x="0"
     inkscape:window-y="0"
     inkscape:window-maximized="1"
     inkscape:current-layer="svg883"
     inkscape:document-units="mm" />
  <path
     style="font-size:12px;vector-effect:non-scaling-stroke;fill:none;fill-rule:evenodd;stroke:#ff0000;stroke-width:0.99999994;stroke-linecap:round;stroke-miterlimit:4;stroke-dasharray:none"
     d="M 0 423.30664 L 0 447.87305 L 11.337891 447.87305 L 11.337891 470.55078 L 0 470.55078 L 0 493.22852 L 11.337891 493.22852 L 11.337891 515.90625 L 0 515.90625 L 0 538.58203 L 11.337891 538.58203 L 11.337891 561.25977 L 0 561.25977 L 0 583.9375 L 11.337891 583.9375 L 11.337891 606.61328 L 0 606.61328 L 0 629.29102 L 11.337891 629.29102 L 11.337891 651.96875 L 0 651.96875 L 0 674.64648 L 11.337891 674.64648 L 11.337891 697.32227 L 0 697.32227 L 0 720 L 11.337891 720 L 11.337891 742.67773 L 0 742.67773 L 0 765.35352 L 11.337891 765.35352 L 11.337891 788.03125 L 0 788.03125 L 0 812.59766 L 43.464844 812.59766 L 43.464844 801.25977 L 66.142578 801.25977 L 66.142578 812.59766 L 88.818359 812.59766 L 88.818359 801.25977 L 111.49609 801.25977 L 111.49609 812.59766 L 134.17383 812.59766 L 134.17383 801.25977 L 156.84961 801.25977 L 156.84961 812.59766 L 179.52734 812.59766 L 179.52734 801.25977 L 202.20508 801.25977 L 202.20508 812.59766 L 224.88281 812.59766 L 224.88281 801.25977 L 247.55859 801.25977 L 247.55859 812.59766 L 270.23633 812.59766 L 270.23633 801.25977 L 292.91406 801.25977 L 292.91406 812.59766 L 315.58984 812.59766 L 315.58984 801.25977 L 338.26758 801.25977 L 338.26758 812.59766 L 360.94531 812.59766 L 360.94531 801.25977 L 383.62109 801.25977 L 383.62109 812.59766 L 406.29883 812.59766 L 406.29883 801.25977 L 428.97656 801.25977 L 428.97656 812.59766 L 451.6543 812.59766 L 451.6543 801.25977 L 474.33008 801.25977 L 474.33008 812.59766 L 497.00781 812.59766 L 497.00781 801.25977 L 519.68555 801.25977 L 519.68555 812.59766 L 542.36133 812.59766 L 542.36133 801.25977 L 565.03906 801.25977 L 565.03906 812.59766 L 587.7168 812.59766 L 587.7168 801.25977 L 610.39453 801.25977 L 610.39453 812.59766 L 633.07031 812.59766 L 633.07031 801.25977 L 655.74805 801.25977 L 655.74805 812.59766 L 678.42578 812.59766 L 678.42578 801.25977 L 701.10156 801.25977 L 701.10156 812.59766 L 723.7793 812.59766 L 723.7793 801.25977 L 746.45703 801.25977 L 746.45703 812.59766 L 769.13477 812.59766 L 789.92188 812.59766 L 789.92188 788.03125 L 778.58203 788.03125 L 778.58203 765.35352 L 789.92188 765.35352 L 789.92188 742.67773 L 778.58203 742.67773 L 778.58203 720 L 789.92188 720 L 789.92188 697.32227 L 778.58203 697.32227 L 778.58203 674.64648 L 789.92188 674.64648 L 789.92188 651.96875 L 778.58203 651.96875 L 778.58203 629.29102 L 789.92188 629.29102 L 789.92188 606.61328 L 778.58203 606.61328 L 778.58203 583.9375 L 789.92188 583.9375 L 789.92188 561.25977 L 778.58203 561.25977 L 778.58203 538.58203 L 789.92188 538.58203 L 789.92188 515.90625 L 778.58203 515.90625 L 778.58203 493.22852 L 789.92188 493.22852 L 789.92188 470.55078 L 778.58203 470.55078 L 778.58203 447.87305 L 789.92188 447.87305 L 789.92188 423.30664 L 655.74805 423.30664 L 626.83984 423.30664 L 626.83984 778.89648 L 551.61719 778.89648 L 551.61719 423.30664 L 237.48242 423.30664 L 237.48242 778.95312 L 162.15039 778.95312 L 162.15039 423.30664 L 146.66797 423.30664 L 125.69727 423.30664 L 0 423.30664 z M 387.88867 486.81641 L 401.03516 486.81641 L 401.03516 526.42188 L 387.88867 526.42188 L 387.88867 486.81641 z M 387.88867 713.47461 L 401.03516 713.47461 L 401.03516 753.08008 L 387.88867 753.08008 L 387.88867 713.47461 z "
     transform="scale(0.26458333)"
     id="front_outsideCutPath" />
  <path
     inkscape:connector-curvature="0"
     style="font-size:12px;vector-effect:non-scaling-stroke;fill:#777777;fill-rule:evenodd;stroke:#777777;stroke-width:0.25000001mm;stroke-linecap:round"
     id="front_labelLayer"
     d="m 119.512,171.28 h -1.669 v -7.131 a 4.72,4.72 0 0 0 -0.054,-0.74 q -0.062,-0.39 -0.196,-0.701 a 1.986,1.986 0 0 0 -0.364,-0.571 q -0.497,-0.538 -1.448,-0.64 a 4.427,4.427 0 0 0 -0.473,-0.024 q -1.73,0 -2.535,0.935 a 2.73,2.73 0 0 0 -0.474,0.83 q -0.33,0.879 -0.33,2.258 v 5.784 h -1.67 v -11.024 h 1.358 l 0.271,1.509 h 0.081 a 3.381,3.381 0 0 1 1.324,-1.205 4.066,4.066 0 0 1 0.114,-0.058 q 0.926,-0.447 2.062,-0.447 a 6.592,6.592 0 0 1 1.122,0.089 q 0.607,0.105 1.086,0.333 a 3,3 0 0 1 0.79,0.538 2.894,2.894 0 0 1 0.705,1.107 q 0.169,0.456 0.243,1.021 a 7.287,7.287 0 0 1 0.057,0.945 z M 87.436,160.256 v 1.297 h -2.807 v 9.727 H 82.96 v -9.727 h -1.972 v -0.754 l 1.972,-0.603 v -0.614 a 6.767,6.767 0 0 1 0.158,-1.534 q 0.488,-2.091 2.488,-2.454 a 5.075,5.075 0 0 1 0.904,-0.076 5.377,5.377 0 0 1 0.761,0.058 q 0.592,0.085 1.291,0.294 l -0.432,1.338 a 8.108,8.108 0 0 0 -0.631,-0.177 q -0.57,-0.135 -1.019,-0.135 a 2.252,2.252 0 0 0 -0.543,0.062 1.446,1.446 0 0 0 -0.855,0.567 1.932,1.932 0 0 0 -0.255,0.515 q -0.17,0.503 -0.194,1.251 a 7.884,7.884 0 0 0 -0.004,0.251 v 0.714 z m 40.576,9.646 v 1.278 q -0.245,0.118 -0.7,0.199 a 6.244,6.244 0 0 1 -0.1,0.017 q -0.528,0.085 -0.95,0.085 -2.551,0 -3.068,-2.143 a 5.248,5.248 0 0 1 -0.131,-1.226 v -6.559 h -1.579 v -0.804 l 1.579,-0.694 0.704,-2.354 h 0.966 v 2.555 h 3.198 v 1.297 h -3.198 v 6.488 q 0,0.7 0.233,1.171 a 1.62,1.62 0 0 0 0.24,0.358 1.551,1.551 0 0 0 0.953,0.508 2.232,2.232 0 0 0 0.344,0.025 5.484,5.484 0 0 0 0.803,-0.057 5.057,5.057 0 0 0 0.052,-0.008 q 0.413,-0.066 0.654,-0.136 z m -32.218,-9.727 -0.231,1.549 q -0.57,-0.125 -1.028,-0.146 a 3.916,3.916 0 0 0 -0.179,-0.004 2.893,2.893 0 0 0 -2.138,0.923 3.958,3.958 0 0 0 -0.15,0.163 3.813,3.813 0 0 0 -0.92,2.141 5.068,5.068 0 0 0 -0.031,0.565 v 5.914 h -1.67 v -11.024 h 1.378 l 0.191,2.042 h 0.081 a 5.639,5.639 0 0 1 0.63,-0.901 4.307,4.307 0 0 1 0.849,-0.759 q 0.865,-0.583 1.901,-0.583 a 7.665,7.665 0 0 1 0.686,0.029 5.595,5.595 0 0 1 0.631,0.091 z m 11.578,5.583 q 0,2.696 -1.358,4.209 a 4.452,4.452 0 0 1 -2.62,1.42 6.484,6.484 0 0 1 -1.132,0.094 5.362,5.362 0 0 1 -1.558,-0.219 4.649,4.649 0 0 1 -1.067,-0.475 q -1.147,-0.694 -1.771,-1.991 -0.623,-1.298 -0.623,-3.038 0,-2.696 1.348,-4.2 a 4.416,4.416 0 0 1 2.577,-1.403 6.485,6.485 0 0 1 1.164,-0.1 5.611,5.611 0 0 1 1.648,0.23 4.371,4.371 0 0 1 2.029,1.309 5.199,5.199 0 0 1 1.136,2.202 q 0.198,0.779 0.223,1.697 a 9.8,9.8 0 0 1 0.004,0.265 z m -8.399,0 a 8.455,8.455 0 0 0 0.08,1.208 q 0.181,1.246 0.765,2.011 a 2.737,2.737 0 0 0 1.782,1.049 4.147,4.147 0 0 0 0.702,0.057 3.878,3.878 0 0 0 1.023,-0.127 2.699,2.699 0 0 0 1.467,-0.974 q 0.85,-1.102 0.85,-3.224 a 8.331,8.331 0 0 0 -0.079,-1.187 q -0.087,-0.605 -0.271,-1.094 a 3.438,3.438 0 0 0 -0.5,-0.913 2.747,2.747 0 0 0 -1.708,-1.018 4.211,4.211 0 0 0 -0.802,-0.073 3.974,3.974 0 0 0 -0.989,0.116 2.659,2.659 0 0 0 -1.485,0.96 q -0.601,0.775 -0.77,2.097 a 8.823,8.823 0 0 0 -0.065,1.112 z" />
  <path
     inkscape:connector-curvature="0"
     style="font-size:12px;vector-effect:non-scaling-stroke;fill:none;fill-rule:evenodd;stroke:#ff0000;stroke-width:0.26458332;stroke-linecap:round;stroke-miterlimit:4;stroke-dasharray:none"
     id="left_outsideCutPath"
     d="m 215,112 v 6.5 h -3 v 6 h 3 v 6 h -3 v 6 h 3 v 6 h -3 v 6 h 3 v 6 h -3 v 6 h 3 v 6 h -3 v 6 h 3 v 6 h -3 v 6 h 3 v 6 h -3 v 6 h 3 v 6 h -3 v 6 h 3 v 6.5 h 5 v -3 h 6 v 3 h 6 v -3 h 6 v 3 h 6 v -3 h 6 v 3 h 6 v -3 h 6 v 3 h 6 v -3 h 6 v 3 h 6 v -3 h 6 v 3 h 6 v -3 h 6 v 3 h 6 v -3 h 6 v 3 h 5 v -6.5 h 3 v -6 h -3 v -6 h 3 v -6 h -3 v -6 h 3 v -6 h -3 v -6 h 3 v -6 h -3 v -6 h 3 v -6 h -3 v -6 h 3 v -6 h -3 v -6 h 3 v -6 h -3 v -6 h 3 v -6 h -3 V 112 Z" />
  <path
     inkscape:connector-curvature="0"
     style="font-size:12px;vector-effect:non-scaling-stroke;fill:#777777;fill-rule:evenodd;stroke:#777777;stroke-width:0.25000001mm;stroke-linecap:round"
     id="left_labelLayer"
     d="m 272.328,160.256 v 1.297 h -2.807 v 9.727 h -1.669 v -9.727 h -1.972 v -0.754 l 1.972,-0.603 v -0.614 a 6.767,6.767 0 0 1 0.158,-1.534 q 0.488,-2.091 2.488,-2.454 a 5.075,5.075 0 0 1 0.904,-0.076 5.377,5.377 0 0 1 0.761,0.058 q 0.592,0.085 1.291,0.294 l -0.432,1.338 a 8.108,8.108 0 0 0 -0.631,-0.177 q -0.57,-0.135 -1.019,-0.135 a 2.252,2.252 0 0 0 -0.543,0.062 1.446,1.446 0 0 0 -0.855,0.567 1.932,1.932 0 0 0 -0.255,0.515 q -0.17,0.503 -0.194,1.251 a 7.884,7.884 0 0 0 -0.004,0.251 v 0.714 z m -7.816,4.758 v 1.056 h -7.594 q 0.034,1.326 0.479,2.215 a 3.135,3.135 0 0 0 0.502,0.732 q 0.93,1.006 2.62,1.006 a 8.819,8.819 0 0 0 3.303,-0.654 10.105,10.105 0 0 0 0.217,-0.091 v 1.489 a 10.024,10.024 0 0 1 -0.913,0.345 7.666,7.666 0 0 1 -0.761,0.203 q -0.614,0.129 -1.425,0.158 a 13.604,13.604 0 0 1 -0.481,0.008 6.488,6.488 0 0 1 -1.624,-0.192 4.594,4.594 0 0 1 -2.234,-1.296 4.914,4.914 0 0 1 -1.175,-2.159 q -0.205,-0.765 -0.233,-1.674 a 9.537,9.537 0 0 1 -0.005,-0.301 8.768,8.768 0 0 1 0.162,-1.739 q 0.214,-1.057 0.71,-1.878 a 4.944,4.944 0 0 1 0.44,-0.618 4.279,4.279 0 0 1 3.119,-1.555 5.903,5.903 0 0 1 0.407,-0.014 5.087,5.087 0 0 1 1.432,0.191 3.871,3.871 0 0 1 1.847,1.172 4.669,4.669 0 0 1 1.058,2.133 6.796,6.796 0 0 1 0.149,1.463 z m 14.897,4.888 v 1.278 q -0.245,0.118 -0.7,0.199 a 6.244,6.244 0 0 1 -0.1,0.017 q -0.528,0.085 -0.95,0.085 -2.551,0 -3.068,-2.143 a 5.248,5.248 0 0 1 -0.131,-1.226 v -6.559 h -1.579 v -0.804 l 1.579,-0.694 0.704,-2.354 h 0.966 v 2.555 h 3.198 v 1.297 h -3.198 v 6.488 q 0,0.7 0.233,1.171 a 1.62,1.62 0 0 0 0.24,0.358 1.551,1.551 0 0 0 0.953,0.508 2.232,2.232 0 0 0 0.344,0.025 5.484,5.484 0 0 0 0.803,-0.057 5.057,5.057 0 0 0 0.052,-0.008 q 0.413,-0.066 0.654,-0.136 z m -27.148,-14.273 v 15.651 h -1.67 v -15.651 z m 4.697,9.083 h 5.764 a 5.69,5.69 0 0 0 -0.069,-0.915 q -0.151,-0.927 -0.635,-1.504 a 2.288,2.288 0 0 0 -1.378,-0.784 3.432,3.432 0 0 0 -0.634,-0.056 3.291,3.291 0 0 0 -0.951,0.131 2.543,2.543 0 0 0 -1.166,0.734 3.298,3.298 0 0 0 -0.656,1.106 q -0.166,0.455 -0.242,1.003 a 6.308,6.308 0 0 0 -0.033,0.285 z" />
  <path
     style="font-size:12px;vector-effect:non-scaling-stroke;fill:none;fill-rule:evenodd;stroke:#ff0000;stroke-width:0.99999994;stroke-linecap:round;stroke-miterlimit:4;stroke-dasharray:none"
     d="M 0 22.677734 L 0 47.244141 L 11.337891 47.244141 L 11.337891 69.921875 L 0 69.921875 L 0 92.597656 L 11.337891 92.597656 L 11.337891 115.27539 L 0 115.27539 L 0 137.95312 L 11.337891 137.95312 L 11.337891 160.63086 L 0 160.63086 L 0 183.30664 L 11.337891 183.30664 L 11.337891 205.98438 L 0 205.98438 L 0 228.66211 L 11.337891 228.66211 L 11.337891 251.33789 L 0 251.33789 L 0 274.01562 L 11.337891 274.01562 L 11.337891 296.69336 L 0 296.69336 L 0 319.36914 L 11.337891 319.36914 L 11.337891 342.04688 L 0 342.04688 L 0 364.72461 L 11.337891 364.72461 L 11.337891 387.40234 L 0 387.40234 L 0 411.96875 L 43.464844 411.96875 L 43.464844 400.63086 L 66.142578 400.63086 L 66.142578 411.96875 L 88.818359 411.96875 L 88.818359 400.63086 L 111.49609 400.63086 L 111.49609 411.96875 L 134.17383 411.96875 L 134.17383 400.63086 L 156.84961 400.63086 L 156.84961 411.96875 L 179.52734 411.96875 L 179.52734 400.63086 L 202.20508 400.63086 L 202.20508 411.96875 L 224.88281 411.96875 L 224.88281 400.63086 L 247.55859 400.63086 L 247.55859 411.96875 L 270.23633 411.96875 L 270.23633 400.63086 L 292.91406 400.63086 L 292.91406 411.96875 L 315.58984 411.96875 L 315.58984 400.63086 L 338.26758 400.63086 L 338.26758 411.96875 L 360.94531 411.96875 L 360.94531 400.63086 L 383.62109 400.63086 L 383.62109 411.96875 L 406.29883 411.96875 L 406.29883 400.63086 L 428.97656 400.63086 L 428.97656 411.96875 L 451.6543 411.96875 L 451.6543 400.63086 L 474.33008 400.63086 L 474.33008 411.96875 L 497.00781 411.96875 L 497.00781 400.63086 L 519.68555 400.63086 L 519.68555 411.96875 L 542.36133 411.96875 L 542.36133 400.63086 L 565.03906 400.63086 L 565.03906 411.96875 L 587.7168 411.96875 L 587.7168 400.63086 L 610.39453 400.63086 L 610.39453 411.96875 L 633.07031 411.96875 L 633.07031 400.63086 L 655.74805 400.63086 L 655.74805 411.96875 L 678.42578 411.96875 L 678.42578 400.63086 L 701.10156 400.63086 L 701.10156 411.96875 L 723.7793 411.96875 L 723.7793 400.63086 L 746.45703 400.63086 L 746.45703 411.96875 L 769.13477 411.96875 L 789.92188 411.96875 L 789.92188 387.40234 L 778.58203 387.40234 L 778.58203 364.72461 L 789.92188 364.72461 L 789.92188 342.04688 L 778.58203 342.04688 L 778.58203 319.36914 L 789.92188 319.36914 L 789.92188 296.69336 L 778.58203 296.69336 L 778.58203 274.01562 L 789.92188 274.01562 L 789.92188 251.33789 L 778.58203 251.33789 L 778.58203 228.66211 L 789.92188 228.66211 L 789.92188 205.98438 L 778.58203 205.98438 L 778.58203 183.30664 L 789.92188 183.30664 L 789.92188 160.63086 L 778.58203 160.63086 L 778.58203 137.95312 L 789.92188 137.95312 L 789.92188 115.27539 L 778.58203 115.27539 L 778.58203 92.597656 L 789.92188 92.597656 L 789.92188 69.921875 L 778.58203 69.921875 L 778.58203 47.244141 L 789.92188 47.244141 L 789.92188 22.677734 L 0 22.677734 z M 387.89844 85.359375 L 401.04492 85.359375 L 401.04492 124.96484 L 387.89844 124.96484 L 387.89844 85.359375 z M 199.81641 106.97461 A 7.4761242 7.4761242 0 0 1 207.29297 114.45117 A 7.4761242 7.4761242 0 0 1 199.81641 121.92773 A 7.4761242 7.4761242 0 0 1 192.33984 114.45117 A 7.4761242 7.4761242 0 0 1 199.81641 106.97461 z M 589.10742 106.97461 A 7.4761241 7.4761241 0 0 1 596.58398 114.45117 A 7.4761241 7.4761241 0 0 1 589.10742 121.92773 A 7.4761241 7.4761241 0 0 1 581.63086 114.45117 A 7.4761241 7.4761241 0 0 1 589.10742 106.97461 z M 387.89844 312.01758 L 401.04492 312.01758 L 401.04492 351.62305 L 387.89844 351.62305 L 387.89844 312.01758 z "
     transform="scale(0.26458333)"
     id="back_outsideCutPath" />
  <path
     inkscape:connector-curvature="0"
     style="font-size:12px;vector-effect:non-scaling-stroke;fill:#777777;fill-rule:evenodd;stroke:#777777;stroke-width:0.25000001mm;stroke-linecap:round"
     id="back_labelLayer"
     d="m 118.602,59.582 h 0.081 a 9.885,9.885 0 0 1 0.244,-0.331 q 0.282,-0.365 0.683,-0.833 A 35.878,35.878 0 0 1 120,57.973 l 3.561,-3.772 h 1.982 l -4.466,4.697 4.777,6.327 h -2.021 l -3.893,-5.21 -1.257,1.086 v 4.124 h -1.65 V 49.574 h 1.65 v 8.298 a 11.127,11.127 0 0 1 -0.005,0.314 q -0.015,0.516 -0.073,1.354 a 69.306,69.306 0 0 1 -0.003,0.042 z m -33.787,4.225 h -0.12 l -0.352,1.418 H 83.146 V 49.574 h 1.669 v 3.802 a 34.812,34.812 0 0 1 -0.019,1.176 q -0.018,0.556 -0.056,1.051 a 20.836,20.836 0 0 1 -0.005,0.066 h 0.08 a 3.796,3.796 0 0 1 2.771,-1.609 5.703,5.703 0 0 1 0.689,-0.04 5.103,5.103 0 0 1 1.437,0.191 3.82,3.82 0 0 1 1.938,1.292 q 0.963,1.188 1.154,3.167 a 10.717,10.717 0 0 1 0.048,1.033 9.79,9.79 0 0 1 -0.13,1.647 q -0.266,1.56 -1.082,2.572 a 3.953,3.953 0 0 1 -2.809,1.478 5.663,5.663 0 0 1 -0.556,0.026 5.065,5.065 0 0 1 -1.272,-0.155 4.407,4.407 0 0 1 -0.694,-0.242 q -0.89,-0.398 -1.494,-1.222 z m 18.971,1.418 h -1.237 l -0.332,-1.569 h -0.081 q -0.582,0.731 -1.162,1.129 a 3.076,3.076 0 0 1 -0.482,0.274 3.851,3.851 0 0 1 -0.796,0.251 q -0.561,0.116 -1.251,0.116 a 5.124,5.124 0 0 1 -1.043,-0.1 q -0.916,-0.19 -1.527,-0.745 a 2.744,2.744 0 0 1 -0.828,-1.447 4.201,4.201 0 0 1 -0.103,-0.957 2.889,2.889 0 0 1 1.644,-2.727 q 1.223,-0.651 3.358,-0.76 a 16.31,16.31 0 0 1 0.339,-0.013 l 1.871,-0.061 v -0.684 a 4.796,4.796 0 0 0 -0.046,-0.693 q -0.115,-0.783 -0.512,-1.223 a 1.695,1.695 0 0 0 -0.694,-0.453 q -0.278,-0.101 -0.622,-0.14 a 4.126,4.126 0 0 0 -0.469,-0.025 5.436,5.436 0 0 0 -1.251,0.156 q -0.875,0.207 -1.867,0.689 l -0.513,-1.278 q 0.814,-0.442 1.785,-0.694 0.971,-0.251 1.946,-0.251 1.233,0 2.067,0.342 a 2.842,2.842 0 0 1 0.855,0.533 2.644,2.644 0 0 1 0.683,1.052 q 0.159,0.432 0.224,0.97 a 6.57,6.57 0 0 1 0.044,0.784 z m 10.793,-10.652 -0.513,1.418 a 7.428,7.428 0 0 0 -0.806,-0.268 8.872,8.872 0 0 0 -0.401,-0.099 6.897,6.897 0 0 0 -0.525,-0.097 q -0.256,-0.037 -0.484,-0.046 a 3.701,3.701 0 0 0 -0.148,-0.003 q -2.984,0 -3.318,3.381 a 9.226,9.226 0 0 0 -0.042,0.904 q 0,2.032 0.82,3.118 0.82,1.087 2.429,1.087 a 6.99,6.99 0 0 0 1.928,-0.281 8.63,8.63 0 0 0 0.899,-0.313 v 1.479 q -0.95,0.492 -2.323,0.562 a 9.157,9.157 0 0 1 -0.463,0.011 6.24,6.24 0 0 1 -1.519,-0.174 4.232,4.232 0 0 1 -2.188,-1.3 q -1.134,-1.272 -1.288,-3.457 a 10.096,10.096 0 0 1 -0.025,-0.712 9.213,9.213 0 0 1 0.143,-1.675 q 0.173,-0.935 0.556,-1.671 a 4.603,4.603 0 0 1 0.634,-0.929 4.323,4.323 0 0 1 2.367,-1.361 6.554,6.554 0 0 1 1.43,-0.148 7.535,7.535 0 0 1 1.589,0.171 8.334,8.334 0 0 1 0.464,0.113 q 0.465,0.129 0.774,0.285 a 2.473,2.473 0 0 1 0.01,0.005 z M 88.034,55.418 A 4.692,4.692 0 0 0 87.125,55.5 q -1.019,0.201 -1.555,0.898 a 2.858,2.858 0 0 0 -0.414,0.789 q -0.279,0.782 -0.33,1.971 a 12.864,12.864 0 0 0 -0.011,0.545 11.04,11.04 0 0 0 0.055,1.141 q 0.12,1.151 0.504,1.852 a 2.518,2.518 0 0 0 0.216,0.331 2.422,2.422 0 0 0 1.229,0.829 q 0.41,0.129 0.911,0.161 a 5.369,5.369 0 0 0 0.344,0.011 3.329,3.329 0 0 0 0.946,-0.127 2.401,2.401 0 0 0 1.348,-0.995 3.833,3.833 0 0 0 0.474,-1.025 q 0.149,-0.488 0.219,-1.077 a 9.567,9.567 0 0 0 0.061,-1.121 q 0,-2.153 -0.754,-3.209 a 2.435,2.435 0 0 0 -1.551,-0.981 3.862,3.862 0 0 0 -0.783,-0.075 z m 14.082,5.381 v -0.996 l -1.67,0.071 q -1.663,0.059 -2.551,0.45 a 2.564,2.564 0 0 0 -0.32,0.168 1.782,1.782 0 0 0 -0.85,1.293 2.637,2.637 0 0 0 -0.03,0.412 q 0,0.796 0.423,1.258 a 1.487,1.487 0 0 0 0.125,0.12 1.818,1.818 0 0 0 0.681,0.362 q 0.375,0.111 0.853,0.111 a 4.597,4.597 0 0 0 0.992,-0.101 q 0.873,-0.193 1.457,-0.754 0.885,-0.85 0.89,-2.377 a 5.314,5.314 0 0 0 0,-0.017 z" />
  <path
     inkscape:connector-curvature="0"
     style="font-size:12px;vector-effect:non-scaling-stroke;fill:none;fill-rule:evenodd;stroke:#ff0000;stroke-width:0.26458332;stroke-linecap:round;stroke-miterlimit:4;stroke-dasharray:none"
     id="right_outsideCutPath"
     d="m 215,6 v 6.5 h -3 v 6 h 3 v 6 h -3 v 6 h 3 v 6 h -3 v 6 h 3 v 6 h -3 v 6 h 3 v 6 h -3 v 6 h 3 v 6 h -3 v 6 h 3 v 6 h -3 v 6 h 3 v 6 h -3 v 6 h 3 v 6.5 h 5 v -3 h 6 v 3 h 6 v -3 h 6 v 3 h 6 v -3 h 6 v 3 h 6 v -3 h 6 v 3 h 6 v -3 h 6 v 3 h 6 v -3 h 6 v 3 h 6 v -3 h 6 v 3 h 6 v -3 h 6 v 3 h 5 v -6.5 h 3 v -6 h -3 v -6 h 3 v -6 h -3 v -6 h 3 v -6 h -3 v -6 h 3 v -6 h -3 v -6 h 3 v -6 h -3 v -6 h 3 v -6 h -3 v -6 h 3 v -6 h -3 v -6 h 3 v -6 h -3 V 6 Z" />
  <path
     inkscape:connector-curvature="0"
     style="font-size:12px;vector-effect:non-scaling-stroke;fill:#777777;fill-rule:evenodd;stroke:#777777;stroke-width:0.25000001mm;stroke-linecap:round"
     id="right_labelLayer"
     d="m 277.81,62.851 h -1.67 V 55.72 a 4.72,4.72 0 0 0 -0.054,-0.74 q -0.062,-0.39 -0.195,-0.701 a 1.986,1.986 0 0 0 -0.365,-0.571 q -0.496,-0.538 -1.448,-0.64 a 4.427,4.427 0 0 0 -0.473,-0.024 5.053,5.053 0 0 0 -0.944,0.082 q -0.524,0.1 -0.927,0.321 a 2.338,2.338 0 0 0 -0.669,0.542 2.778,2.778 0 0 0 -0.471,0.836 q -0.328,0.884 -0.328,2.263 v 5.763 h -1.67 V 47.2 h 1.67 v 4.738 a 15.021,15.021 0 0 1 -0.011,0.576 q -0.018,0.481 -0.07,0.842 h 0.101 a 3.336,3.336 0 0 1 1.169,-1.125 4.076,4.076 0 0 1 0.234,-0.127 4.286,4.286 0 0 1 1.407,-0.418 5.419,5.419 0 0 1 0.67,-0.04 6.774,6.774 0 0 1 1.138,0.089 q 1.192,0.204 1.895,0.871 a 2.907,2.907 0 0 1 0.717,1.126 q 0.294,0.799 0.294,1.927 z M 262.521,51.827 h 3.812 v 1.056 l -2.042,0.241 a 2.714,2.714 0 0 1 0.235,0.35 q 0.103,0.18 0.196,0.396 a 5.147,5.147 0 0 1 0.072,0.175 3.212,3.212 0 0 1 0.19,0.767 4.125,4.125 0 0 1 0.031,0.515 3.828,3.828 0 0 1 -0.176,1.187 3.096,3.096 0 0 1 -0.93,1.398 3.703,3.703 0 0 1 -1.457,0.768 q -0.706,0.198 -1.581,0.198 -0.493,0 -0.925,-0.081 a 2.971,2.971 0 0 0 -0.479,0.31 q -0.248,0.2 -0.391,0.429 a 1.256,1.256 0 0 0 -0.197,0.68 0.865,0.865 0 0 0 0.044,0.283 q 0.08,0.232 0.306,0.372 a 0.927,0.927 0 0 0 0.023,0.014 1.171,1.171 0 0 0 0.259,0.107 q 0.272,0.079 0.686,0.101 a 6.352,6.352 0 0 0 0.332,0.008 h 1.951 a 6.835,6.835 0 0 1 1.038,0.074 q 1.053,0.162 1.713,0.68 a 2.443,2.443 0 0 1 0.908,1.556 3.669,3.669 0 0 1 0.053,0.637 3.615,3.615 0 0 1 -0.207,1.251 q -0.344,0.94 -1.262,1.54 -1.468,0.961 -4.285,0.961 a 9.355,9.355 0 0 1 -1.254,-0.079 q -1.274,-0.173 -2.08,-0.726 -1.172,-0.804 -1.172,-2.273 a 2.553,2.553 0 0 1 0.644,-1.74 q 0.644,-0.734 1.81,-0.996 a 1.733,1.733 0 0 1 -0.672,-0.544 2.057,2.057 0 0 1 -0.037,-0.049 1.548,1.548 0 0 1 -0.284,-0.837 1.917,1.917 0 0 1 -0.002,-0.099 1.909,1.909 0 0 1 0.096,-0.615 1.692,1.692 0 0 1 0.226,-0.441 q 0.321,-0.453 1.015,-0.875 a 2.927,2.927 0 0 1 -1.271,-1.018 3.628,3.628 0 0 1 -0.122,-0.179 3.452,3.452 0 0 1 -0.529,-1.663 4.213,4.213 0 0 1 -0.009,-0.268 4.824,4.824 0 0 1 0.127,-1.141 3.174,3.174 0 0 1 0.96,-1.651 3.546,3.546 0 0 1 1.361,-0.75 q 0.752,-0.23 1.716,-0.23 a 6.4,6.4 0 0 1 0.847,0.053 4.874,4.874 0 0 1 0.713,0.148 z m 23.788,9.646 v 1.278 q -0.245,0.118 -0.7,0.199 a 6.244,6.244 0 0 1 -0.1,0.017 q -0.528,0.085 -0.95,0.085 -2.551,0 -3.068,-2.143 a 5.248,5.248 0 0 1 -0.131,-1.226 v -6.559 h -1.579 V 52.32 l 1.579,-0.694 0.704,-2.354 h 0.966 v 2.555 h 3.199 v 1.297 h -3.199 v 6.488 q 0,0.7 0.233,1.171 a 1.62,1.62 0 0 0 0.24,0.358 1.551,1.551 0 0 0 0.953,0.508 2.232,2.232 0 0 0 0.344,0.025 5.484,5.484 0 0 0 0.804,-0.057 5.057,5.057 0 0 0 0.051,-0.008 q 0.413,-0.066 0.654,-0.136 z m -36.271,-9.727 -0.232,1.549 q -0.569,-0.125 -1.027,-0.146 a 3.916,3.916 0 0 0 -0.18,-0.004 2.893,2.893 0 0 0 -2.137,0.923 3.958,3.958 0 0 0 -0.151,0.163 3.813,3.813 0 0 0 -0.92,2.141 5.068,5.068 0 0 0 -0.03,0.565 v 5.914 h -1.67 V 51.827 h 1.378 l 0.191,2.042 h 0.08 a 5.639,5.639 0 0 1 0.631,-0.901 4.307,4.307 0 0 1 0.848,-0.759 q 0.865,-0.583 1.901,-0.583 a 7.665,7.665 0 0 1 0.686,0.029 5.595,5.595 0 0 1 0.632,0.091 z m 3.732,0.081 V 62.851 H 252.1 V 51.827 Z m 8.177,10.773 h -2.001 a 3.838,3.838 0 0 0 -0.692,0.058 q -0.393,0.072 -0.703,0.233 a 1.956,1.956 0 0 0 -0.376,0.252 1.759,1.759 0 0 0 -0.578,0.997 2.672,2.672 0 0 0 -0.055,0.562 1.677,1.677 0 0 0 0.11,0.622 q 0.159,0.401 0.546,0.671 a 1.959,1.959 0 0 0 0.098,0.065 q 0.754,0.462 2.163,0.462 a 11.225,11.225 0 0 0 1.096,-0.049 q 1.29,-0.127 2.017,-0.579 a 2.436,2.436 0 0 0 0.565,-0.473 1.825,1.825 0 0 0 0.446,-1.232 q 0,-0.555 -0.213,-0.899 a 1.052,1.052 0 0 0 -0.341,-0.343 1.584,1.584 0 0 0 -0.375,-0.164 Q 263.058,62.6 261.947,62.6 Z m -3.5,-7.243 q 0,1.157 0.654,1.751 a 2.158,2.158 0 0 0 0.868,0.471 q 0.331,0.095 0.726,0.116 a 4.299,4.299 0 0 0 0.226,0.006 q 2.444,0 2.444,-2.374 a 3.59,3.59 0 0 0 -0.122,-0.983 q -0.428,-1.501 -2.352,-1.501 -1.177,0 -1.81,0.634 a 2.004,2.004 0 0 0 -0.485,0.816 q -0.103,0.317 -0.135,0.701 a 4.392,4.392 0 0 0 -0.014,0.363 z m -6.464,-6.823 a 1.85,1.85 0 0 0 -0.024,0.305 1.971,1.971 0 0 0 0.009,0.189 q 0.016,0.169 0.063,0.306 a 0.862,0.862 0 0 0 0.21,0.345 0.937,0.937 0 0 0 0.339,0.216 1.061,1.061 0 0 0 0.365,0.061 0.974,0.974 0 0 0 0.694,-0.277 0.815,0.815 0 0 0 0.159,-0.21 q 0.073,-0.137 0.105,-0.313 a 1.728,1.728 0 0 0 0.028,-0.317 1.91,1.91 0 0 0 -0.009,-0.18 q -0.015,-0.165 -0.061,-0.3 a 0.843,0.843 0 0 0 -0.222,-0.354 0.984,0.984 0 0 0 -0.694,-0.272 1.275,1.275 0 0 0 -0.085,0.003 0.966,0.966 0 0 0 -0.619,0.264 0.781,0.781 0 0 0 -0.173,0.245 q -0.058,0.127 -0.085,0.289 z" />
  <path
     style="font-size:12px;vector-effect:non-scaling-stroke;fill:none;fill-rule:evenodd;stroke:#ff0000;stroke-width:0.99999994;stroke-linecap:round;stroke-miterlimit:4;stroke-dasharray:none"
     d="M 1256.6934 411.96875 L 1256.6934 423.30664 L 1234.0156 423.30664 L 1224.5664 423.30664 L 1224.5664 442.20508 L 1213.2285 442.20508 L 1213.2285 464.88281 L 1224.5664 464.88281 L 1224.5664 487.55859 L 1213.2285 487.55859 L 1213.2285 510.23633 L 1224.5664 510.23633 L 1224.5664 532.91406 L 1213.2285 532.91406 L 1213.2285 555.58984 L 1224.5664 555.58984 L 1224.5664 578.26758 L 1213.2285 578.26758 L 1213.2285 600.94531 L 1224.5664 600.94531 L 1224.5664 623.62109 L 1213.2285 623.62109 L 1213.2285 646.29883 L 1224.5664 646.29883 L 1224.5664 668.97656 L 1213.2285 668.97656 L 1213.2285 691.6543 L 1224.5664 691.6543 L 1224.5664 714.33008 L 1213.2285 714.33008 L 1213.2285 737.00781 L 1224.5664 737.00781 L 1224.5664 759.68555 L 1213.2285 759.68555 L 1213.2285 782.36133 L 1224.5664 782.36133 L 1224.5664 801.25977 L 1256.6934 801.25977 L 1256.6934 812.59766 L 1279.3691 812.59766 L 1279.3691 801.25977 L 1302.0469 801.25977 L 1302.0469 812.59766 L 1324.7246 812.59766 L 1324.7246 801.25977 L 1347.4023 801.25977 L 1347.4023 812.59766 L 1370.0781 812.59766 L 1370.0781 801.25977 L 1392.7559 801.25977 L 1392.7559 812.59766 L 1415.4336 812.59766 L 1415.4336 801.25977 L 1438.1094 801.25977 L 1438.1094 812.59766 L 1460.7871 812.59766 L 1460.7871 801.25977 L 1483.4648 801.25977 L 1483.4648 812.59766 L 1506.1426 812.59766 L 1506.1426 801.25977 L 1528.8184 801.25977 L 1528.8184 812.59766 L 1551.4961 812.59766 L 1551.4961 801.25977 L 1574.1738 801.25977 L 1574.1738 812.59766 L 1596.8496 812.59766 L 1596.8496 801.25977 L 1619.5273 801.25977 L 1619.5273 812.59766 L 1642.2051 812.59766 L 1642.2051 801.25977 L 1664.8828 801.25977 L 1664.8828 812.59766 L 1687.5586 812.59766 L 1687.5586 801.25977 L 1710.2363 801.25977 L 1710.2363 812.59766 L 1732.9141 812.59766 L 1732.9141 801.25977 L 1755.5898 801.25977 L 1755.5898 812.59766 L 1778.2676 812.59766 L 1778.2676 801.25977 L 1800.9453 801.25977 L 1800.9453 812.59766 L 1823.6211 812.59766 L 1823.6211 801.25977 L 1846.2988 801.25977 L 1846.2988 812.59766 L 1868.9766 812.59766 L 1868.9766 801.25977 L 1891.6543 801.25977 L 1891.6543 812.59766 L 1914.3301 812.59766 L 1914.3301 801.25977 L 1937.0078 801.25977 L 1937.0078 812.59766 L 1959.6855 812.59766 L 1959.6855 801.25977 L 1982.3613 801.25977 L 1991.8105 801.25977 L 1991.8105 782.36133 L 2003.1504 782.36133 L 2003.1504 759.68555 L 1991.8105 759.68555 L 1991.8105 737.00781 L 2003.1504 737.00781 L 2003.1504 714.33008 L 1991.8105 714.33008 L 1991.8105 691.6543 L 2003.1504 691.6543 L 2003.1504 668.97656 L 1991.8105 668.97656 L 1991.8105 646.29883 L 2003.1504 646.29883 L 2003.1504 623.62109 L 1991.8105 623.62109 L 1991.8105 600.94531 L 2003.1504 600.94531 L 2003.1504 578.26758 L 1991.8105 578.26758 L 1991.8105 555.58984 L 2003.1504 555.58984 L 2003.1504 532.91406 L 1991.8105 532.91406 L 1991.8105 510.23633 L 2003.1504 510.23633 L 2003.1504 487.55859 L 1991.8105 487.55859 L 1991.8105 464.88281 L 2003.1504 464.88281 L 2003.1504 442.20508 L 1991.8105 442.20508 L 1991.8105 423.30664 L 1959.6855 423.30664 L 1959.6855 411.96875 L 1937.0078 411.96875 L 1937.0078 423.30664 L 1914.3301 423.30664 L 1914.3301 411.96875 L 1891.6543 411.96875 L 1891.6543 423.30664 L 1868.9766 423.30664 L 1868.9766 411.96875 L 1846.2988 411.96875 L 1846.2988 423.30664 L 1823.6211 423.30664 L 1823.6211 411.96875 L 1800.9453 411.96875 L 1800.9453 423.30664 L 1778.2676 423.30664 L 1778.2676 411.96875 L 1755.5898 411.96875 L 1755.5898 423.30664 L 1732.9141 423.30664 L 1732.9141 411.96875 L 1710.2363 411.96875 L 1710.2363 423.30664 L 1687.5586 423.30664 L 1687.5586 411.96875 L 1664.8828 411.96875 L 1664.8828 423.30664 L 1642.2051 423.30664 L 1642.2051 411.96875 L 1619.5273 411.96875 L 1619.5273 423.30664 L 1596.8496 423.30664 L 1596.8496 411.96875 L 1574.1738 411.96875 L 1574.1738 423.30664 L 1551.4961 423.30664 L 1551.4961 411.96875 L 1528.8184 411.96875 L 1528.8184 423.30664 L 1506.1426 423.30664 L 1506.1426 411.96875 L 1483.4648 411.96875 L 1483.4648 423.30664 L 1460.7871 423.30664 L 1460.7871 411.96875 L 1438.1094 411.96875 L 1438.1094 423.30664 L 1415.4336 423.30664 L 1415.4336 411.96875 L 1392.7559 411.96875 L 1392.7559 423.30664 L 1370.0781 423.30664 L 1370.0781 411.96875 L 1347.4023 411.96875 L 1347.4023 423.30664 L 1324.7246 423.30664 L 1324.7246 411.96875 L 1302.0469 411.96875 L 1302.0469 423.30664 L 1279.3691 423.30664 L 1279.3691 411.96875 L 1256.6934 411.96875 z M 1601.2129 461.73828 L 1614.166 461.73828 L 1614.166 538.94336 L 1601.2129 538.94336 L 1601.2129 461.73828 z M 1601.2129 687.56445 L 1614.166 687.56445 L 1614.166 764.77148 L 1601.2129 764.77148 L 1601.2129 687.56445 z "
     transform="scale(0.26458333)"
     id="bottom_outsideCutPath" />
  <path
     inkscape:connector-curvature="0"
     style="font-size:12px;vector-effect:non-scaling-stroke;fill:#777777;fill-rule:evenodd;stroke:#777777;stroke-width:0.25000001mm;stroke-linecap:round"
     id="bottom_labelLayer"
     d="m 460.374,169.95 h -1.718 v -7.381 q 0,-1.356 -0.58,-2.034 -0.507,-0.593 -1.505,-0.667 a 3.989,3.989 0 0 0 -0.296,-0.011 4.422,4.422 0 0 0 -0.9,0.085 q -0.938,0.196 -1.47,0.836 -0.763,0.917 -0.766,2.819 a 9.479,9.479 0 0 0 0,0.018 v 6.335 h -1.719 v -7.381 q 0,-1.356 -0.579,-2.034 -0.58,-0.678 -1.812,-0.678 a 4.268,4.268 0 0 0 -0.883,0.085 q -0.544,0.115 -0.95,0.386 a 2.252,2.252 0 0 0 -0.532,0.497 2.882,2.882 0 0 0 -0.428,0.811 q -0.323,0.915 -0.323,2.362 v 5.952 h -1.718 v -11.346 h 1.397 l 0.28,1.553 h 0.083 a 3.377,3.377 0 0 1 1.371,-1.294 4.08,4.08 0 0 1 1.612,-0.452 4.927,4.927 0 0 1 0.371,-0.014 5.626,5.626 0 0 1 1.266,0.132 q 1.608,0.372 2.212,1.794 h 0.082 a 3.588,3.588 0 0 1 1.352,-1.342 4.311,4.311 0 0 1 0.118,-0.066 4.349,4.349 0 0 1 1.596,-0.485 5.423,5.423 0 0 1 0.599,-0.033 q 1.925,0 2.883,0.989 a 2.959,2.959 0 0 1 0.635,1.039 q 0.171,0.458 0.252,1.029 a 7.882,7.882 0 0 1 0.07,1.094 z m -68.03,-1.46 h -0.124 l -0.363,1.46 h -1.231 v -16.107 h 1.718 v 3.913 q 0,1.272 -0.078,2.292 a 21.449,21.449 0 0 1 -0.005,0.068 h 0.083 a 3.907,3.907 0 0 1 2.852,-1.656 5.869,5.869 0 0 1 0.709,-0.042 5.252,5.252 0 0 1 1.478,0.197 3.932,3.932 0 0 1 1.995,1.33 5.063,5.063 0 0 1 0.888,1.71 q 0.349,1.127 0.349,2.612 a 10.075,10.075 0 0 1 -0.134,1.695 q -0.154,0.903 -0.487,1.628 a 4.83,4.83 0 0 1 -0.627,1.019 4.068,4.068 0 0 1 -2.891,1.52 5.828,5.828 0 0 1 -0.571,0.028 5.212,5.212 0 0 1 -1.31,-0.16 4.535,4.535 0 0 1 -0.714,-0.249 q -0.916,-0.409 -1.537,-1.258 z m 29.295,0.042 v 1.314 q -0.28,0.135 -0.823,0.223 -0.544,0.088 -0.978,0.088 a 4.488,4.488 0 0 1 -1.323,-0.178 q -1.454,-0.449 -1.834,-2.028 a 5.401,5.401 0 0 1 -0.135,-1.262 v -6.749 h -1.625 v -0.828 l 1.625,-0.715 0.724,-2.422 h 0.994 v 2.629 h 3.292 v 1.336 h -3.292 v 6.677 a 3.46,3.46 0 0 0 0.05,0.607 q 0.106,0.593 0.437,0.966 a 1.596,1.596 0 0 0 0.981,0.522 2.297,2.297 0 0 0 0.354,0.027 q 0.456,0 0.88,-0.068 0.405,-0.064 0.65,-0.133 a 2.58,2.58 0 0 0 0.023,-0.006 z m 7.484,0 v 1.314 q -0.279,0.135 -0.823,0.223 -0.543,0.088 -0.978,0.088 a 4.488,4.488 0 0 1 -1.323,-0.178 q -1.454,-0.449 -1.834,-2.028 a 5.401,5.401 0 0 1 -0.135,-1.262 v -6.749 h -1.625 v -0.828 l 1.625,-0.715 0.725,-2.422 h 0.993 v 2.629 h 3.292 v 1.336 h -3.292 v 6.677 a 3.46,3.46 0 0 0 0.05,0.607 q 0.106,0.593 0.437,0.966 a 1.596,1.596 0 0 0 0.981,0.522 2.297,2.297 0 0 0 0.354,0.027 q 0.456,0 0.88,-0.068 0.405,-0.064 0.65,-0.133 a 2.58,2.58 0 0 0 0.023,-0.006 z m -15.871,-2.539 a 8.876,8.876 0 0 0 0.157,-1.726 10.085,10.085 0 0 0 -0.003,-0.273 q -0.026,-0.945 -0.23,-1.747 a 5.351,5.351 0 0 0 -1.169,-2.266 q -1.403,-1.584 -3.784,-1.584 a 6.674,6.674 0 0 0 -1.199,0.103 4.545,4.545 0 0 0 -2.652,1.445 q -0.921,1.028 -1.23,2.596 a 8.922,8.922 0 0 0 -0.157,1.726 8.596,8.596 0 0 0 0.108,1.392 6.357,6.357 0 0 0 0.534,1.734 5.648,5.648 0 0 0 0.125,0.245 4.652,4.652 0 0 0 1.697,1.805 4.785,4.785 0 0 0 1.098,0.488 5.518,5.518 0 0 0 1.604,0.226 q 2.463,0 3.861,-1.558 a 4.794,4.794 0 0 0 0.571,-0.784 q 0.465,-0.797 0.669,-1.822 z m 27.773,0 a 8.876,8.876 0 0 0 0.158,-1.726 10.085,10.085 0 0 0 -0.004,-0.273 q -0.026,-0.945 -0.23,-1.747 a 5.351,5.351 0 0 0 -1.169,-2.266 q -1.403,-1.584 -3.784,-1.584 a 6.674,6.674 0 0 0 -1.198,0.103 4.545,4.545 0 0 0 -2.652,1.445 q -0.921,1.028 -1.231,2.596 a 8.922,8.922 0 0 0 -0.156,1.726 8.596,8.596 0 0 0 0.108,1.392 6.357,6.357 0 0 0 0.533,1.734 5.648,5.648 0 0 0 0.125,0.245 4.652,4.652 0 0 0 1.697,1.805 4.785,4.785 0 0 0 1.098,0.488 5.518,5.518 0 0 0 1.604,0.226 q 2.464,0 3.861,-1.558 a 4.794,4.794 0 0 0 0.571,-0.784 q 0.465,-0.797 0.669,-1.822 z m -36.259,-1.726 a 8.702,8.702 0 0 0 0.083,1.243 q 0.091,0.631 0.283,1.142 a 3.605,3.605 0 0 0 0.503,0.927 2.816,2.816 0 0 0 1.835,1.08 4.268,4.268 0 0 0 0.722,0.059 3.991,3.991 0 0 0 1.053,-0.131 2.778,2.778 0 0 0 1.509,-1.003 q 0.875,-1.133 0.875,-3.317 0,-1.388 -0.36,-2.348 a 3.538,3.538 0 0 0 -0.515,-0.939 2.827,2.827 0 0 0 -1.757,-1.048 4.334,4.334 0 0 0 -0.826,-0.075 4.089,4.089 0 0 0 -1.018,0.119 2.737,2.737 0 0 0 -1.528,0.989 q -0.619,0.797 -0.792,2.157 a 9.08,9.08 0 0 0 -0.067,1.145 z m 27.773,0 a 8.702,8.702 0 0 0 0.083,1.243 q 0.091,0.631 0.283,1.142 a 3.605,3.605 0 0 0 0.504,0.927 2.816,2.816 0 0 0 1.834,1.08 4.268,4.268 0 0 0 0.722,0.059 3.991,3.991 0 0 0 1.053,-0.131 2.778,2.778 0 0 0 1.509,-1.003 q 0.875,-1.133 0.875,-3.317 0,-1.388 -0.36,-2.348 a 3.538,3.538 0 0 0 -0.515,-0.939 2.827,2.827 0 0 0 -1.757,-1.048 4.334,4.334 0 0 0 -0.825,-0.075 4.089,4.089 0 0 0 -1.018,0.119 2.737,2.737 0 0 0 -1.529,0.989 q -0.618,0.797 -0.792,2.157 a 9.08,9.08 0 0 0 -0.067,1.145 z m -36.883,-4.41 a 4.829,4.829 0 0 0 -0.935,0.084 q -0.532,0.106 -0.937,0.342 a 2.285,2.285 0 0 0 -0.664,0.583 q -0.776,1.01 -0.776,3.401 0,2.031 0.575,3.08 a 2.592,2.592 0 0 0 0.222,0.341 q 0.715,0.923 2.203,1.019 a 5.525,5.525 0 0 0 0.354,0.011 q 1.584,0 2.36,-1.154 a 3.945,3.945 0 0 0 0.488,-1.056 q 0.153,-0.501 0.225,-1.108 a 9.846,9.846 0 0 0 0.063,-1.154 q 0,-2.1 -0.697,-3.186 a 2.851,2.851 0 0 0 -0.079,-0.116 2.506,2.506 0 0 0 -1.595,-1.01 3.974,3.974 0 0 0 -0.807,-0.077 z" />
  <path
     style="font-size:12px;vector-effect:non-scaling-stroke;fill:none;fill-opacity:1;fill-rule:evenodd;stroke:#ff0000;stroke-width:0.26458332;stroke-linecap:round;stroke-miterlimit:4;stroke-dasharray:none"
     d="m 328.50756,3.3537994 v 6.5003769 5.9996337 4.276741 h -3.03702 v 9.973551 h 3.03702 v 3.750159 5.999633 6.000152 6.00015 5.999633 6.000152 6.000149 6.000152 0.320911 3.94136 h -3.03702 v 9.98492 h 3.03702 v 3.752744 5.999626 1.701177 1.80454 h 9.99218 v 2.99465 h 9.6883 10.30168 v -2.9931 h 11.45201 v 5.2e-4 h 17.76016 0.56534 10.25622 v 2.99258 h 2.36162 17.62787 v -2.99258 h 9.99474 v -0.008 -0.94465 -2.555387 -5.999626 -3.752744 h 2.99722 v -0.250629 -8.747787 -0.986504 h -2.99722 v -0.250629 -0.724506 -3.287136 -6.000152 -6.000149 -6.000152 -5.999633 -6.00015 -6.000152 -5.999633 -3.750159 h 2.99929 v -9.98957 h -2.99929 V 15.85381 9.8541763 3.3537994 Z"
     id="right_outsideCutPath-6"
     inkscape:connector-curvature="0" />
  <g
     aria-label="DRINKS"
     transform="rotate(-35.026741,0.15199575,-5.6569443)"
     style="font-style:normal;font-variant:normal;font-weight:normal;font-stretch:normal;font-size:7.05555534px;line-height:1;font-family:Hack;-inkscape-font-specification:Hack;letter-spacing:0px;word-spacing:0px;fill:#000000;fill-opacity:1;stroke:none;stroke-width:0.26458332"
     id="text909">
    <path
       d="m -52.437243,199.06421 h 7.303602 c 3.762045,0 5.829102,-2.08084 5.829102,-5.40191 v -6.90397 c 0,-3.32107 -2.053277,-5.40191 -5.829102,-5.40191 h -7.303602 c -0.289388,0 -0.468533,0.17914 -0.468533,0.46853 v 16.77073 c 0,0.28938 0.179145,0.46853 0.468533,0.46853 z m 3.858507,-3.514 c -0.289388,0 -0.468533,-0.17914 -0.468533,-0.46853 v -9.74273 c 0,-0.28939 0.179145,-0.46853 0.468533,-0.46853 h 3.486436 c 1.088651,0 1.929254,0.75792 1.929254,1.92925 v 6.86263 c 0,1.17133 -0.840603,1.88791 -1.929254,1.88791 z"
       style="font-style:normal;font-variant:normal;font-weight:normal;font-stretch:normal;font-size:28.22222328px;font-family:'Politics Head';-inkscape-font-specification:'Politics Head';stroke-width:0.26458332"
       id="path874"
       inkscape:connector-curvature="0" />
    <path
       d="m -27.963284,188.78404 h -3.293511 c -0.289388,0 -0.468533,-0.17914 -0.468533,-0.46853 v -2.97656 c 0,-0.28939 0.179145,-0.46853 0.468533,-0.46853 h 3.293511 c 1.088651,0 1.929254,0.73036 1.929254,1.70876 v 0.48232 c 0,0.9784 -0.868164,1.72254 -1.929254,1.72254 z m -7.152018,10.28017 h 2.921441 c 0.289388,0 0.468533,-0.17915 0.468533,-0.46853 v -5.95313 c 0,-0.28939 0.179145,-0.46853 0.468533,-0.46853 h 2.384006 c 0.124024,0 0.234267,0.0551 0.289388,0.19292 l 2.687175,6.47678 c 0.0689,0.15159 0.165364,0.22049 0.275607,0.22049 h 3.334853 c 0.220486,0 0.330729,-0.11024 0.330729,-0.22049 0,-0.11024 -0.05512,-0.28939 -0.179145,-0.57877 l -2.700955,-6.57325 c -0.04134,-0.11024 -0.0689,-0.19292 -0.0689,-0.30316 0,-0.11025 0.0689,-0.19293 0.206706,-0.27561 1.584744,-0.96463 2.328885,-2.39779 2.328885,-4.31326 0,-3.33485 -2.108399,-5.44325 -5.636177,-5.44325 H -35.1153 c -0.289388,0 -0.468533,0.17914 -0.468533,0.46853 v 16.77073 c 0,0.28938 0.179145,0.46853 0.468533,0.46853 z"
       style="font-style:normal;font-variant:normal;font-weight:normal;font-stretch:normal;font-size:28.22222328px;font-family:'Politics Head';-inkscape-font-specification:'Politics Head';stroke-width:0.26458332"
       id="path876"
       inkscape:connector-curvature="0" />
    <path
       d="m -18.317016,199.06421 h 2.921441 c 0.289388,0 0.468533,-0.17915 0.468533,-0.46853 v -16.90853 c 0,-0.28939 -0.179145,-0.46854 -0.468533,-0.46854 h -2.921441 c -0.289388,0 -0.468533,0.17915 -0.468533,0.46854 v 16.90853 c 0,0.28938 0.179145,0.46853 0.468533,0.46853 z"
       style="font-style:normal;font-variant:normal;font-weight:normal;font-stretch:normal;font-size:28.22222328px;font-family:'Politics Head';-inkscape-font-specification:'Politics Head';stroke-width:0.26458332"
       id="path878"
       inkscape:connector-curvature="0" />
    <path
       d="m -10.048785,199.06421 h 2.9214409 c 0.289388,0 0.468533,-0.17915 0.468533,-0.46853 v -5.63618 c 0,-1.80523 -0.1929254,-3.7207 -0.4134115,-4.50619 h 0.1102431 c 0,0.0551 0.2480468,0.62012 0.578776,1.21268 l 5.56727453,9.17773 c 0.11024306,0.16537 0.23426651,0.22049 0.41341148,0.22049 H 2.2708767 c 0.289388,0 0.468533,-0.17915 0.468533,-0.46853 v -16.90853 c 0,-0.28939 -0.179145,-0.46854 -0.468533,-0.46854 h -2.92144108 c -0.28938803,0 -0.46853302,0.17915 -0.46853302,0.46854 v 5.66373 c 0,1.55719 0.23426652,3.77583 0.53743494,5.09875 h -0.11024306 c -0.0551215,-0.17915 -0.42719188,-0.95085 -0.75792108,-1.50207 l -5.4983726,-9.53602 c -0.082682,-0.12402 -0.2204861,-0.19293 -0.3996311,-0.19293 h -2.7009547 c -0.289388,0 -0.468533,0.17915 -0.468533,0.46854 v 16.90853 c 0,0.28938 0.179145,0.46853 0.468533,0.46853 z"
       style="font-style:normal;font-variant:normal;font-weight:normal;font-stretch:normal;font-size:28.22222328px;font-family:'Politics Head';-inkscape-font-specification:'Politics Head';stroke-width:0.26458332"
       id="path880"
       inkscape:connector-curvature="0" />
    <path
       d="m 7.6176653,199.06421 h 2.9214407 c 0.289388,0 0.468533,-0.17915 0.468533,-0.46853 v -5.25033 l 1.157552,-1.44694 c 0.05512,-0.0689 0.151585,-0.1378 0.220487,-0.1378 0.110243,0 0.206705,0.0965 0.248047,0.16536 l 4.34082,6.84885 c 0.124023,0.19293 0.303168,0.28939 0.496094,0.28939 h 3.417535 c 0.289388,0 0.468533,-0.17915 0.468533,-0.48231 0,-0.11025 -0.02756,-0.19293 -0.08268,-0.27561 l -6.407878,-9.39822 c -0.05512,-0.0827 -0.08268,-0.11025 -0.08268,-0.15159 0,-0.0413 0.01378,-0.0689 0.08268,-0.15158 l 5.37435,-6.58702 c 0.0689,-0.0689 0.110243,-0.20671 0.110243,-0.33073 0,-0.28939 -0.179145,-0.46854 -0.468533,-0.46854 h -3.169488 c -0.151584,0 -0.275608,0.0551 -0.372071,0.17915 l -5.553494,7.05555 c 0.137804,-0.48231 0.220486,-1.21267 0.220486,-1.91547 v -4.85069 c 0,-0.28939 -0.179145,-0.46854 -0.468533,-0.46854 H 7.6176653 c -0.289388,0 -0.468533,0.17915 -0.468533,0.46854 v 16.90853 c 0,0.28938 0.179145,0.46853 0.468533,0.46853 z"
       style="font-style:normal;font-variant:normal;font-weight:normal;font-stretch:normal;font-size:28.22222328px;font-family:'Politics Head';-inkscape-font-specification:'Politics Head';stroke-width:0.26458332"
       id="path882"
       inkscape:connector-curvature="0" />
    <path
       d="m 29.376892,199.33982 c 3.941189,0 6.242513,-2.12218 6.242513,-5.42947 0,-2.41157 -1.681206,-4.25814 -5.346788,-5.49838 -2.259983,-0.7717 -2.976563,-1.35047 -2.976563,-2.23242 0,-0.9095 0.757921,-1.63986 2.094618,-1.63986 1.198894,0 2.094618,0.55121 2.50803,1.44694 0.09646,0.2067 0.261827,0.31694 0.427192,0.31694 0.0689,0 0.137804,-0.0138 0.206706,-0.0413 l 2.508029,-0.9095 c 0.165365,-0.0551 0.234267,-0.16537 0.234267,-0.28939 0,-0.0827 0,-0.12402 -0.08268,-0.41341 -0.799262,-2.2462 -2.949002,-3.56912 -5.870443,-3.56912 -3.720703,0 -6.090929,2.39779 -6.090929,4.89204 0,2.71473 1.598525,4.54752 5.37435,5.73263 2.315104,0.73037 2.949001,1.46073 2.949001,2.34267 0,0.97841 -0.74414,1.69499 -2.16352,1.69499 -1.543403,0 -2.425347,-0.59256 -2.866319,-1.54341 -0.09646,-0.2067 -0.261827,-0.31694 -0.427192,-0.31694 -0.0689,0 -0.137804,0.0138 -0.206706,0.0413 l -2.645833,1.00596 c -0.165365,0.0551 -0.234267,0.16537 -0.234267,0.28939 0,0.0827 0,0.12403 0.08268,0.41341 0.702799,2.31511 3.100586,3.70693 6.283854,3.70693 z"
       style="font-style:normal;font-variant:normal;font-weight:normal;font-stretch:normal;font-size:28.22222328px;font-family:'Politics Head';-inkscape-font-specification:'Politics Head';stroke-width:0.26458332"
       id="path884"
       inkscape:connector-curvature="0" />
  </g>
</svg>
