<?xml version="1.0" encoding="UTF-8" standalone="no"?>
<svg
   xmlns:dc="http://purl.org/dc/elements/1.1/"
   xmlns:cc="http://creativecommons.org/ns#"
   xmlns:rdf="http://www.w3.org/1999/02/22-rdf-syntax-ns#"
   xmlns:svg="http://www.w3.org/2000/svg"
   xmlns="http://www.w3.org/2000/svg"
   xmlns:sodipodi="http://sodipodi.sourceforge.net/DTD/sodipodi-0.dtd"
   xmlns:inkscape="http://www.inkscape.org/namespaces/inkscape"
   width="166mm"
   height="163mm"
   viewBox="0 0 166 163"
   version="1.1"
   preserveAspectRatio="xMidYMid meet"
   id="svg13"
   sodipodi:docname="RemoteHolder.svg"
   inkscape:version="1.0.1 (3bc2e813f5, 2020-09-07, custom)">
  <metadata
     id="metadata19">
    <rdf:RDF>
      <cc:Work
         rdf:about="">
        <dc:format>image/svg+xml</dc:format>
        <dc:type
           rdf:resource="http://purl.org/dc/dcmitype/StillImage" />
        <dc:title />
      </cc:Work>
    </rdf:RDF>
  </metadata>
  <defs
     id="defs17" />
  <sodipodi:namedview
     pagecolor="#ffffff"
     bordercolor="#666666"
     borderopacity="1"
     objecttolerance="10"
     gridtolerance="10"
     guidetolerance="10"
     inkscape:pageopacity="0"
     inkscape:pageshadow="2"
     inkscape:window-width="1920"
     inkscape:window-height="1032"
     id="namedview15"
     showgrid="false"
     inkscape:document-units="mm"
     inkscape:zoom="2.2821751"
     inkscape:cx="130.72836"
     inkscape:cy="176.51929"
     inkscape:window-x="0"
     inkscape:window-y="0"
     inkscape:window-maximized="1"
     inkscape:current-layer="svg13"
     inkscape:document-rotation="0" />
  <path
     d="m 0,83 v 13.75 h 3 v 10.5 H 0 v 10.5 h 3 v 10.5 H 0 v 10.5 h 3 v 10.5 H 0 v 10.5 3.25 h 14.25 v -3 h 10.5 v 3 h 10.5 v -3 h 10.5 v 3 H 56.25 60 v -13.75 h -3 v -10.5 h 3 v -10.5 h -3 v -10.5 h 3 v -10.5 h -3 v -10.5 h 3 V 86.25 83 Z"
     id="front_outsideCutPath"
     stroke="#FF0000"
     stroke-width="0.1"
     style="font-size:12px;fill:none;fill-rule:evenodd;stroke:#ff0000;stroke-width:0.1;stroke-linecap:round"
     vector-effect="non-scaling-stroke" />
  <path
     d="m 38.745,127.532 h -0.973 v -4.154 a 2.749,2.749 0 0 0 -0.031,-0.431 q -0.036,-0.227 -0.114,-0.408 a 1.157,1.157 0 0 0 -0.212,-0.333 q -0.289,-0.313 -0.844,-0.373 a 2.579,2.579 0 0 0 -0.275,-0.014 2.944,2.944 0 0 0 -0.551,0.048 q -0.596,0.114 -0.926,0.497 a 1.59,1.59 0 0 0 -0.276,0.483 q -0.166,0.444 -0.189,1.105 a 6.231,6.231 0 0 0 -0.003,0.211 v 3.369 h -0.973 v -6.422 h 0.791 l 0.158,0.879 h 0.047 a 1.97,1.97 0 0 1 0.771,-0.702 2.368,2.368 0 0 1 0.067,-0.033 q 0.539,-0.261 1.201,-0.261 0.77,0 1.286,0.246 a 1.748,1.748 0 0 1 0.46,0.314 1.686,1.686 0 0 1 0.411,0.644 q 0.175,0.473 0.175,1.146 z M 20.06,121.11 v 0.756 h -1.635 v 5.666 h -0.973 v -5.666 h -1.148 v -0.439 l 1.148,-0.352 v -0.357 a 3.942,3.942 0 0 1 0.092,-0.894 q 0.344,-1.474 1.977,-1.474 a 3.132,3.132 0 0 1 0.443,0.034 q 0.215,0.031 0.455,0.09 a 6.296,6.296 0 0 1 0.297,0.082 l -0.252,0.779 a 4.723,4.723 0 0 0 -0.367,-0.104 q -0.333,-0.078 -0.594,-0.078 a 1.312,1.312 0 0 0 -0.316,0.036 0.842,0.842 0 0 0 -0.499,0.33 1.125,1.125 0 0 0 -0.148,0.3 q -0.099,0.293 -0.113,0.729 a 4.592,4.592 0 0 0 -0.002,0.146 v 0.416 z m 23.636,5.619 v 0.745 a 0.957,0.957 0 0 1 -0.113,0.045 q -0.121,0.04 -0.294,0.071 a 3.638,3.638 0 0 1 -0.059,0.009 4.216,4.216 0 0 1 -0.274,0.036 q -0.13,0.013 -0.246,0.014 a 2.494,2.494 0 0 1 -0.033,0 2.54,2.54 0 0 1 -0.749,-0.1 q -0.823,-0.254 -1.038,-1.148 a 3.057,3.057 0 0 1 -0.077,-0.715 v -3.82 h -0.919 v -0.469 l 0.919,-0.404 0.411,-1.371 h 0.562 v 1.488 h 1.863 v 0.756 h -1.863 v 3.779 a 1.959,1.959 0 0 0 0.028,0.344 q 0.034,0.189 0.108,0.338 a 0.943,0.943 0 0 0 0.14,0.209 0.904,0.904 0 0 0 0.555,0.296 1.3,1.3 0 0 0 0.2,0.015 3.194,3.194 0 0 0 0.468,-0.034 2.943,2.943 0 0 0 0.03,-0.005 q 0.241,-0.038 0.381,-0.079 z m -18.767,-5.666 -0.135,0.903 a 4.287,4.287 0 0 0 -0.308,-0.057 q -0.214,-0.031 -0.395,-0.031 a 1.685,1.685 0 0 0 -1.245,0.538 2.306,2.306 0 0 0 -0.088,0.095 2.221,2.221 0 0 0 -0.536,1.247 2.952,2.952 0 0 0 -0.018,0.329 v 3.445 h -0.973 v -6.422 h 0.803 l 0.112,1.19 h 0.046 a 3.285,3.285 0 0 1 0.368,-0.525 2.509,2.509 0 0 1 0.494,-0.442 1.939,1.939 0 0 1 1.107,-0.34 4.465,4.465 0 0 1 0.4,0.017 3.259,3.259 0 0 1 0.368,0.053 z m 6.655,4.23 a 5.024,5.024 0 0 0 0.089,-0.978 5.708,5.708 0 0 0 -0.002,-0.154 q -0.039,-1.421 -0.792,-2.271 a 2.546,2.546 0 0 0 -1.182,-0.763 3.268,3.268 0 0 0 -0.96,-0.134 q -1.394,0 -2.179,0.876 -0.786,0.876 -0.786,2.446 a 4.866,4.866 0 0 0 0.062,0.788 3.598,3.598 0 0 0 0.302,0.982 3.197,3.197 0 0 0 0.071,0.138 2.633,2.633 0 0 0 0.96,1.022 2.708,2.708 0 0 0 0.622,0.276 3.123,3.123 0 0 0 0.907,0.128 3.777,3.777 0 0 0 0.66,-0.055 2.593,2.593 0 0 0 1.526,-0.827 q 0.525,-0.585 0.702,-1.474 z m -4.804,-0.978 a 4.926,4.926 0 0 0 0.047,0.704 q 0.105,0.726 0.445,1.171 a 1.594,1.594 0 0 0 1.039,0.612 2.416,2.416 0 0 0 0.409,0.033 q 0.955,0 1.45,-0.642 0.495,-0.641 0.495,-1.878 0,-0.785 -0.204,-1.329 a 2.003,2.003 0 0 0 -0.291,-0.531 1.6,1.6 0 0 0 -0.995,-0.594 2.453,2.453 0 0 0 -0.467,-0.042 2.315,2.315 0 0 0 -0.576,0.068 1.549,1.549 0 0 0 -0.865,0.559 2.011,2.011 0 0 0 -0.313,0.604 q -0.092,0.278 -0.136,0.618 a 5.14,5.14 0 0 0 -0.038,0.647 z"
     id="front_labelLayer"
     stroke="#777777"
     fill="#777777"
     style="font-size:12px;fill:#777777;fill-rule:evenodd;stroke:#777777;stroke-width:0.25mm;stroke-linecap:round"
     vector-effect="non-scaling-stroke" />
  <path
     d="m 66,83 v 13.75 h -3 v 10.5 h 3 v 10.5 h -3 v 10.5 h 3 v 10.5 h -3 v 10.5 h 3 v 10.5 3.25 h 11.75 v -3 h 10.5 v 3 h 10.5 1.25 v -13.75 h 3 v -10.5 h -3 v -10.5 h 3 v -10.5 h -3 v -10.5 h 3 v -10.5 h -3 V 86.25 83 Z"
     id="left_outsideCutPath"
     stroke="#FF0000"
     stroke-width="0.1"
     style="font-size:12px;fill:none;fill-rule:evenodd;stroke:#ff0000;stroke-width:0.1;stroke-linecap:round"
     vector-effect="non-scaling-stroke" />
  <path
     d="m 85.846,121.74 v 0.504 h -1.09 v 3.777 h -0.649 v -3.777 h -0.765 v -0.293 l 0.765,-0.234 v -0.239 a 2.628,2.628 0 0 1 0.062,-0.595 q 0.19,-0.812 0.966,-0.953 a 1.971,1.971 0 0 1 0.351,-0.03 2.088,2.088 0 0 1 0.296,0.023 q 0.23,0.033 0.501,0.114 l -0.168,0.52 q -0.375,-0.122 -0.64,-0.122 a 0.874,0.874 0 0 0 -0.211,0.024 0.562,0.562 0 0 0 -0.332,0.221 0.75,0.75 0 0 0 -0.1,0.2 q -0.076,0.227 -0.076,0.583 v 0.277 z m -3.035,1.848 v 0.41 h -2.95 a 2.603,2.603 0 0 0 0.046,0.436 q 0.047,0.237 0.141,0.424 a 1.217,1.217 0 0 0 0.194,0.284 1.178,1.178 0 0 0 0.619,0.349 1.785,1.785 0 0 0 0.399,0.042 3.425,3.425 0 0 0 1.282,-0.254 3.924,3.924 0 0 0 0.085,-0.035 v 0.578 a 3.893,3.893 0 0 1 -0.355,0.134 2.977,2.977 0 0 1 -0.295,0.079 2.722,2.722 0 0 1 -0.271,0.042 q -0.132,0.014 -0.283,0.019 a 5.283,5.283 0 0 1 -0.187,0.004 2.52,2.52 0 0 1 -0.63,-0.075 1.784,1.784 0 0 1 -0.868,-0.504 1.908,1.908 0 0 1 -0.456,-0.838 q -0.093,-0.346 -0.093,-0.767 a 3.405,3.405 0 0 1 0.063,-0.675 q 0.117,-0.574 0.447,-0.97 a 1.662,1.662 0 0 1 1.211,-0.604 2.292,2.292 0 0 1 0.158,-0.005 1.976,1.976 0 0 1 0.557,0.074 1.503,1.503 0 0 1 0.717,0.455 1.813,1.813 0 0 1 0.411,0.829 2.639,2.639 0 0 1 0.058,0.568 z m 5.785,1.898 v 0.496 a 0.638,0.638 0 0 1 -0.076,0.03 q -0.094,0.031 -0.235,0.054 a 2.811,2.811 0 0 1 -0.183,0.024 q -0.099,0.01 -0.186,0.01 a 1.694,1.694 0 0 1 -0.499,-0.068 q -0.549,-0.169 -0.692,-0.765 a 2.038,2.038 0 0 1 -0.051,-0.476 v -2.547 h -0.613 v -0.312 l 0.613,-0.27 0.273,-0.914 h 0.375 v 0.992 h 1.242 v 0.504 h -1.242 v 2.52 q 0,0.271 0.091,0.454 a 0.629,0.629 0 0 0 0.093,0.139 0.602,0.602 0 0 0 0.37,0.197 0.867,0.867 0 0 0 0.134,0.01 2.13,2.13 0 0 0 0.312,-0.022 1.963,1.963 0 0 0 0.02,-0.003 3.508,3.508 0 0 0 0.093,-0.016 q 0.09,-0.017 0.152,-0.034 a 0.975,0.975 0 0 0 0.009,-0.003 z m -10.543,-5.543 v 6.078 h -0.649 v -6.078 z m 1.824,3.528 h 2.238 a 2.21,2.21 0 0 0 -0.026,-0.356 q -0.032,-0.19 -0.099,-0.343 a 1.003,1.003 0 0 0 -0.148,-0.241 0.888,0.888 0 0 0 -0.535,-0.304 1.333,1.333 0 0 0 -0.246,-0.022 1.278,1.278 0 0 0 -0.37,0.051 0.988,0.988 0 0 0 -0.453,0.285 q -0.277,0.304 -0.348,0.819 a 2.45,2.45 0 0 0 -0.013,0.111 z"
     id="left_labelLayer"
     stroke="#777777"
     fill="#777777"
     style="font-size:12px;fill:#777777;fill-rule:evenodd;stroke:#777777;stroke-width:0.25mm;stroke-linecap:round"
     vector-effect="non-scaling-stroke" />
  <path
     d="m 38.215,41.213 h 0.047 a 5.758,5.758 0 0 1 0.142,-0.193 q 0.239,-0.31 0.625,-0.745 l 2.075,-2.197 h 1.154 l -2.602,2.736 2.783,3.686 h -1.177 l -2.268,-3.035 -0.732,0.633 V 44.5 h -0.961 v -9.117 h 0.961 v 4.834 A 6.482,6.482 0 0 1 38.259,40.4 q -0.009,0.307 -0.044,0.813 z m -19.682,2.461 h -0.07 L 18.258,44.5 h -0.697 v -9.117 h 0.972 v 2.215 q 0,0.72 -0.044,1.297 a 12.201,12.201 0 0 1 -0.003,0.039 h 0.047 a 2.211,2.211 0 0 1 1.614,-0.938 3.322,3.322 0 0 1 0.402,-0.023 q 1.265,0 1.966,0.864 0.7,0.864 0.7,2.446 a 5.703,5.703 0 0 1 -0.076,0.96 q -0.087,0.511 -0.276,0.921 a 2.734,2.734 0 0 1 -0.354,0.577 2.303,2.303 0 0 1 -1.637,0.861 3.299,3.299 0 0 1 -0.323,0.015 2.95,2.95 0 0 1 -0.742,-0.09 2.567,2.567 0 0 1 -0.404,-0.141 2.154,2.154 0 0 1 -0.87,-0.712 z M 29.584,44.5 H 28.863 L 28.67,43.586 h -0.047 q -0.339,0.426 -0.677,0.658 a 1.792,1.792 0 0 1 -0.281,0.159 2.243,2.243 0 0 1 -0.463,0.146 q -0.225,0.047 -0.485,0.062 a 4.377,4.377 0 0 1 -0.244,0.006 2.985,2.985 0 0 1 -0.608,-0.058 q -0.534,-0.111 -0.889,-0.434 a 1.599,1.599 0 0 1 -0.483,-0.843 2.447,2.447 0 0 1 -0.059,-0.557 1.683,1.683 0 0 1 0.957,-1.589 q 0.713,-0.379 1.956,-0.443 a 9.501,9.501 0 0 1 0.198,-0.008 l 1.09,-0.035 V 40.252 A 2.794,2.794 0 0 0 28.608,39.848 Q 28.577,39.641 28.513,39.476 A 1.085,1.085 0 0 0 28.31,39.136 0.987,0.987 0 0 0 27.905,38.872 Q 27.743,38.813 27.543,38.79 a 2.403,2.403 0 0 0 -0.273,-0.015 3.167,3.167 0 0 0 -0.729,0.091 q -0.51,0.121 -1.088,0.402 l -0.299,-0.745 a 4.485,4.485 0 0 1 0.866,-0.355 5.105,5.105 0 0 1 0.174,-0.049 4.504,4.504 0 0 1 1.134,-0.146 4.108,4.108 0 0 1 0.626,0.044 q 0.686,0.106 1.076,0.465 0.554,0.51 0.554,1.635 z m 6.287,-6.205 -0.299,0.826 Q 35.25,38.992 34.869,38.907 34.543,38.834 34.282,38.824 a 2.156,2.156 0 0 0 -0.087,-0.002 2.157,2.157 0 0 0 -0.876,0.165 q -0.918,0.405 -1.056,1.805 a 5.375,5.375 0 0 0 -0.025,0.526 4.711,4.711 0 0 0 0.047,0.686 q 0.051,0.348 0.159,0.631 a 2.017,2.017 0 0 0 0.272,0.5 1.545,1.545 0 0 0 1.001,0.598 2.353,2.353 0 0 0 0.414,0.035 4.072,4.072 0 0 0 1.123,-0.164 5.027,5.027 0 0 0 0.523,-0.182 v 0.861 a 2.767,2.767 0 0 1 -0.677,0.24 q -0.312,0.069 -0.676,0.087 A 5.334,5.334 0 0 1 34.154,44.617 3.635,3.635 0 0 1 33.27,44.516 2.465,2.465 0 0 1 31.995,43.759 2.813,2.813 0 0 1 31.41,42.684 Q 31.281,42.258 31.245,41.745 A 5.881,5.881 0 0 1 31.23,41.33 5.367,5.367 0 0 1 31.314,40.354 q 0.17,-0.923 0.693,-1.514 a 2.519,2.519 0 0 1 1.379,-0.793 3.818,3.818 0 0 1 0.833,-0.086 q 0.463,0 0.926,0.099 a 4.855,4.855 0 0 1 0.269,0.066 q 0.276,0.076 0.457,0.169 z m -16.523,0.733 a 1.294,1.294 0 0 0 -0.375,0.33 1.665,1.665 0 0 0 -0.241,0.459 q -0.163,0.456 -0.192,1.149 a 7.494,7.494 0 0 0 -0.007,0.317 6.431,6.431 0 0 0 0.032,0.665 q 0.07,0.67 0.294,1.079 a 1.467,1.467 0 0 0 0.125,0.193 1.411,1.411 0 0 0 0.716,0.483 q 0.319,0.1 0.732,0.1 a 1.939,1.939 0 0 0 0.55,-0.074 1.399,1.399 0 0 0 0.786,-0.58 2.233,2.233 0 0 0 0.276,-0.597 q 0.163,-0.534 0.163,-1.281 0,-1.188 -0.395,-1.803 a 1.614,1.614 0 0 0 -0.044,-0.066 1.418,1.418 0 0 0 -0.903,-0.571 2.25,2.25 0 0 0 -0.457,-0.044 q -0.647,0 -1.06,0.241 z m 9.263,2.894 v -0.58 l -0.972,0.041 a 7.142,7.142 0 0 0 -0.571,0.041 q -0.563,0.066 -0.915,0.221 a 1.494,1.494 0 0 0 -0.187,0.098 1.038,1.038 0 0 0 -0.495,0.753 1.536,1.536 0 0 0 -0.018,0.24 1.39,1.39 0 0 0 0.035,0.319 q 0.07,0.299 0.284,0.484 0.276,0.238 0.742,0.27 a 2.188,2.188 0 0 0 0.152,0.005 q 0.908,0 1.427,-0.498 a 1.629,1.629 0 0 0 0.454,-0.813 q 0.063,-0.262 0.064,-0.571 a 3.098,3.098 0 0 0 0,-0.01 z"
     id="back_labelLayer"
     stroke="#777777"
     fill="#777777"
     style="font-size:12px;fill:#777777;fill-rule:evenodd;stroke:#777777;stroke-width:0.25mm;stroke-linecap:round"
     vector-effect="non-scaling-stroke" />
  <path
     d="m 66,0 v 13.75 h -3 v 10.5 h 3 v 10.5 h -3 v 10.5 h 3 v 10.5 h -3 v 10.5 h 3 V 76.75 80 h 11.75 v -3 h 10.5 v 3 H 98.75 100 V 66.25 h 3 v -10.5 h -3 v -10.5 h 3 v -10.5 h -3 v -10.5 h 3 v -10.5 h -3 V 3.25 0 Z"
     id="right_outsideCutPath"
     stroke="#FF0000"
     stroke-width="0.1"
     style="font-size:12px;fill:none;fill-rule:evenodd;stroke:#ff0000;stroke-width:0.1;stroke-linecap:round"
     vector-effect="non-scaling-stroke" />
  <path
     d="m 87.975,42.078 h -0.649 v -2.769 q 0,-0.334 -0.097,-0.56 a 0.771,0.771 0 0 0 -0.141,-0.222 0.731,0.731 0 0 0 -0.3,-0.191 Q 86.67,38.294 86.525,38.279 A 1.719,1.719 0 0 0 86.342,38.27 q -0.676,0 -0.987,0.367 a 1.079,1.079 0 0 0 -0.183,0.324 q -0.11,0.297 -0.125,0.739 a 4.185,4.185 0 0 0 -0.002,0.14 v 2.238 H 84.396 V 36 h 0.649 v 1.84 q 0,0.239 -0.016,0.419 a 2.536,2.536 0 0 1 -0.015,0.132 h 0.039 a 1.296,1.296 0 0 1 0.454,-0.437 1.583,1.583 0 0 1 0.091,-0.05 q 0.353,-0.177 0.806,-0.177 a 2.631,2.631 0 0 1 0.442,0.034 q 0.463,0.079 0.736,0.339 a 1.129,1.129 0 0 1 0.279,0.437 q 0.066,0.182 0.094,0.407 a 2.804,2.804 0 0 1 0.02,0.341 z m -5.938,-4.281 h 1.481 v 0.41 l -0.793,0.094 q 0.092,0.115 0.167,0.289 a 1.999,1.999 0 0 1 0.028,0.068 1.248,1.248 0 0 1 0.074,0.298 1.602,1.602 0 0 1 0.012,0.2 1.487,1.487 0 0 1 -0.068,0.461 1.202,1.202 0 0 1 -0.362,0.543 1.438,1.438 0 0 1 -0.566,0.298 q -0.214,0.06 -0.468,0.073 a 2.816,2.816 0 0 1 -0.146,0.004 2.084,2.084 0 0 1 -0.241,-0.013 1.76,1.76 0 0 1 -0.118,-0.018 q -0.236,0.125 -0.338,0.287 a 0.488,0.488 0 0 0 -0.076,0.264 q 0,0.17 0.136,0.254 a 0.36,0.36 0 0 0 0.009,0.005 0.455,0.455 0 0 0 0.1,0.042 q 0.146,0.042 0.396,0.042 h 0.757 q 0.696,0 1.069,0.293 a 0.949,0.949 0 0 1 0.352,0.605 1.425,1.425 0 0 1 0.021,0.247 1.404,1.404 0 0 1 -0.08,0.486 q -0.13,0.353 -0.468,0.583 a 1.54,1.54 0 0 1 -0.022,0.015 q -0.398,0.26 -1.05,0.339 A 5.14,5.14 0 0 1 81.229,44 q -0.552,0 -0.937,-0.135 a 1.507,1.507 0 0 1 -0.358,-0.178 q -0.426,-0.292 -0.454,-0.81 a 1.369,1.369 0 0 1 -0.001,-0.072 0.991,0.991 0 0 1 0.25,-0.676 1.132,1.132 0 0 1 0.388,-0.284 1.605,1.605 0 0 1 0.315,-0.103 0.673,0.673 0 0 1 -0.262,-0.211 0.799,0.799 0 0 1 -0.014,-0.019 0.601,0.601 0 0 1 -0.11,-0.325 0.745,0.745 0 0 1 -0.001,-0.039 0.742,0.742 0 0 1 0.037,-0.238 0.657,0.657 0 0 1 0.088,-0.172 0.928,0.928 0 0 1 0.122,-0.138 q 0.066,-0.061 0.149,-0.121 a 2.037,2.037 0 0 1 0.123,-0.081 1.137,1.137 0 0 1 -0.493,-0.395 1.409,1.409 0 0 1 -0.048,-0.069 q -0.209,-0.329 -0.209,-0.75 a 1.873,1.873 0 0 1 0.05,-0.443 1.233,1.233 0 0 1 0.372,-0.641 q 0.365,-0.329 0.991,-0.374 a 2.864,2.864 0 0 1 0.205,-0.007 q 0.336,0 0.605,0.078 z m 9.238,3.746 v 0.496 a 0.638,0.638 0 0 1 -0.075,0.03 q -0.094,0.031 -0.235,0.054 a 2.811,2.811 0 0 1 -0.183,0.024 q -0.099,0.009 -0.186,0.009 A 1.694,1.694 0 0 1 90.097,42.089 Q 89.548,41.92 89.404,41.324 a 2.038,2.038 0 0 1 -0.05,-0.476 V 38.301 H 88.74 v -0.313 l 0.614,-0.269 0.273,-0.914 h 0.375 v 0.992 h 1.242 v 0.504 h -1.242 v 2.519 q 0,0.272 0.091,0.455 a 0.629,0.629 0 0 0 0.093,0.139 0.602,0.602 0 0 0 0.37,0.197 0.867,0.867 0 0 0 0.133,0.01 2.13,2.13 0 0 0 0.312,-0.022 1.963,1.963 0 0 0 0.02,-0.003 3.508,3.508 0 0 0 0.094,-0.016 q 0.09,-0.017 0.152,-0.035 a 0.975,0.975 0 0 0 0.008,-0.002 z M 77.189,37.766 77.1,38.367 Q 76.878,38.318 76.7,38.31 a 1.521,1.521 0 0 0 -0.069,-0.001 q -0.52,0 -0.889,0.421 a 1.481,1.481 0 0 0 -0.357,0.832 1.968,1.968 0 0 0 -0.012,0.219 v 2.297 h -0.648 v -4.281 h 0.535 l 0.074,0.793 h 0.031 a 2.19,2.19 0 0 1 0.245,-0.35 1.673,1.673 0 0 1 0.329,-0.295 q 0.336,-0.226 0.739,-0.226 0.285,0 0.511,0.047 z m 1.45,0.031 v 4.281 H 77.99 v -4.281 z m 3.175,4.183 h -0.777 a 1.491,1.491 0 0 0 -0.269,0.023 q -0.152,0.028 -0.273,0.091 a 0.76,0.76 0 0 0 -0.145,0.097 0.683,0.683 0 0 0 -0.225,0.388 1.038,1.038 0 0 0 -0.021,0.218 0.651,0.651 0 0 0 0.042,0.241 q 0.07,0.175 0.25,0.286 0.293,0.18 0.84,0.18 a 4.359,4.359 0 0 0 0.426,-0.019 q 0.427,-0.042 0.695,-0.176 a 1.077,1.077 0 0 0 0.088,-0.049 0.946,0.946 0 0 0 0.22,-0.184 0.709,0.709 0 0 0 0.173,-0.478 0.877,0.877 0 0 0 -0.016,-0.175 q -0.043,-0.21 -0.199,-0.308 -0.164,-0.102 -0.547,-0.127 A 4.126,4.126 0 0 0 81.814,41.98 Z m -1.359,-2.812 a 1.266,1.266 0 0 0 0.026,0.265 q 0.055,0.258 0.228,0.415 a 0.838,0.838 0 0 0 0.337,0.183 q 0.129,0.037 0.282,0.045 a 1.67,1.67 0 0 0 0.088,0.002 1.413,1.413 0 0 0 0.37,-0.044 q 0.579,-0.158 0.579,-0.878 A 1.394,1.394 0 0 0 82.318,38.774 Q 82.195,38.346 81.76,38.233 a 1.41,1.41 0 0 0 -0.356,-0.042 q -0.457,0 -0.703,0.246 a 0.778,0.778 0 0 0 -0.188,0.318 q -0.04,0.122 -0.052,0.272 a 1.706,1.706 0 0 0 -0.006,0.141 z m -2.51,-2.65 a 0.719,0.719 0 0 0 -0.009,0.119 0.766,0.766 0 0 0 0.003,0.073 q 0.006,0.065 0.024,0.119 a 0.335,0.335 0 0 0 0.082,0.134 q 0.109,0.107 0.273,0.107 a 0.378,0.378 0 0 0 0.27,-0.107 0.316,0.316 0 0 0 0.062,-0.082 q 0.028,-0.053 0.041,-0.121 a 0.671,0.671 0 0 0 0.01,-0.123 q 0,-0.107 -0.027,-0.187 a 0.327,0.327 0 0 0 -0.086,-0.138 0.382,0.382 0 0 0 -0.27,-0.105 0.495,0.495 0 0 0 -0.032,10e-4 0.375,0.375 0 0 0 -0.241,0.103 0.303,0.303 0 0 0 -0.067,0.095 q -0.023,0.049 -0.033,0.112 z"
     id="right_labelLayer"
     stroke="#777777"
     fill="#777777"
     style="font-size:12px;fill:#777777;fill-rule:evenodd;stroke:#777777;stroke-width:0.25mm;stroke-linecap:round"
     vector-effect="non-scaling-stroke" />
  <path
     d="m 109,126 v 11.75 h -3 v 10.5 h 3 v 10.5 1.25 h 11.25 v 3 h 10.5 v -3 h 10.5 v 3 h 10.5 v -3 h 10.5 0.75 v -11.75 h 3 v -10.5 h -3 V 127.25 126 h -11.25 v -3 h -10.5 v 3 h -10.5 v -3 h -10.5 v 3 h -10.5 z"
     id="bottom_outsideCutPath"
     stroke="#FF0000"
     stroke-width="0.1"
     style="font-size:12px;fill:none;fill-rule:evenodd;stroke:#ff0000;stroke-width:0.1;stroke-linecap:round"
     vector-effect="non-scaling-stroke" />
  <path
     d="m 149.16,146 h -0.648 v -2.785 a 1.913,1.913 0 0 0 -0.02,-0.282 q -0.045,-0.306 -0.199,-0.486 -0.191,-0.224 -0.568,-0.252 a 1.505,1.505 0 0 0 -0.112,-0.004 1.669,1.669 0 0 0 -0.339,0.033 q -0.354,0.073 -0.555,0.315 a 1.072,1.072 0 0 0 -0.182,0.329 q -0.107,0.301 -0.107,0.741 V 146 h -0.649 v -2.785 a 1.913,1.913 0 0 0 -0.019,-0.282 q -0.046,-0.306 -0.2,-0.486 a 0.68,0.68 0 0 0 -0.312,-0.203 q -0.113,-0.037 -0.251,-0.048 a 1.518,1.518 0 0 0 -0.12,-0.005 q -0.609,0 -0.893,0.366 a 1.087,1.087 0 0 0 -0.161,0.306 q -0.104,0.296 -0.119,0.739 a 4.514,4.514 0 0 0 -0.003,0.152 V 146 h -0.648 v -4.281 h 0.527 l 0.105,0.586 h 0.032 q 0.183,-0.313 0.517,-0.489 a 1.539,1.539 0 0 1 0.608,-0.17 1.859,1.859 0 0 1 0.14,-0.005 2.123,2.123 0 0 1 0.478,0.049 q 0.294,0.068 0.499,0.229 a 1.107,1.107 0 0 1 0.336,0.448 h 0.031 a 1.354,1.354 0 0 1 0.51,-0.506 1.627,1.627 0 0 1 0.045,-0.025 1.641,1.641 0 0 1 0.602,-0.183 2.046,2.046 0 0 1 0.226,-0.012 2.254,2.254 0 0 1 0.409,0.034 q 0.227,0.042 0.404,0.135 a 1.069,1.069 0 0 1 0.275,0.204 q 0.263,0.271 0.334,0.78 a 2.974,2.974 0 0 1 0.027,0.413 z m -25.672,-0.551 h -0.047 L 123.305,146 h -0.465 v -6.078 h 0.648 v 1.476 q 0,0.48 -0.029,0.865 a 8.109,8.109 0 0 1 -0.002,0.026 h 0.031 a 1.474,1.474 0 0 1 1.076,-0.625 2.215,2.215 0 0 1 0.268,-0.016 1.982,1.982 0 0 1 0.558,0.075 1.484,1.484 0 0 1 0.753,0.502 q 0.373,0.461 0.448,1.229 a 4.162,4.162 0 0 1 0.018,0.401 3.802,3.802 0 0 1 -0.05,0.64 q -0.104,0.606 -0.42,0.999 -0.471,0.584 -1.307,0.584 -0.418,0 -0.764,-0.154 a 1.436,1.436 0 0 1 -0.58,-0.475 z m 11.055,0.016 v 0.496 a 0.638,0.638 0 0 1 -0.076,0.03 q -0.094,0.031 -0.235,0.054 a 2.811,2.811 0 0 1 -0.183,0.024 q -0.099,0.009 -0.186,0.009 a 1.694,1.694 0 0 1 -0.499,-0.067 q -0.548,-0.169 -0.692,-0.765 a 2.038,2.038 0 0 1 -0.051,-0.477 v -2.546 h -0.613 v -0.313 l 0.613,-0.269 0.274,-0.915 h 0.375 v 0.993 h 1.242 v 0.504 h -1.242 v 2.519 q 0,0.272 0.09,0.455 a 0.629,0.629 0 0 0 0.093,0.139 0.602,0.602 0 0 0 0.37,0.197 0.867,0.867 0 0 0 0.134,0.01 2.13,2.13 0 0 0 0.312,-0.022 1.963,1.963 0 0 0 0.02,-0.004 3.508,3.508 0 0 0 0.094,-0.016 q 0.089,-0.016 0.151,-0.034 a 0.975,0.975 0 0 0 0.009,-0.002 z m 2.824,0 v 0.496 a 0.638,0.638 0 0 1 -0.075,0.03 q -0.094,0.031 -0.235,0.054 a 2.811,2.811 0 0 1 -0.184,0.024 q -0.098,0.009 -0.186,0.009 a 1.694,1.694 0 0 1 -0.499,-0.067 q -0.548,-0.169 -0.692,-0.765 a 2.038,2.038 0 0 1 -0.051,-0.477 v -2.546 h -0.613 v -0.313 l 0.613,-0.269 0.274,-0.915 h 0.375 v 0.993 h 1.242 v 0.504 h -1.242 v 2.519 q 0,0.272 0.09,0.455 a 0.629,0.629 0 0 0 0.093,0.139 0.602,0.602 0 0 0 0.371,0.197 0.867,0.867 0 0 0 0.133,0.01 2.13,2.13 0 0 0 0.312,-0.022 1.963,1.963 0 0 0 0.02,-0.004 3.508,3.508 0 0 0 0.094,-0.016 q 0.089,-0.016 0.151,-0.034 a 0.975,0.975 0 0 0 0.009,-0.002 z m -6.457,0.025 a 1.809,1.809 0 0 0 0.216,-0.296 q 0.311,-0.533 0.311,-1.339 a 3.806,3.806 0 0 0 -0.001,-0.103 q -0.026,-0.947 -0.528,-1.514 a 1.698,1.698 0 0 0 -0.788,-0.508 2.179,2.179 0 0 0 -0.64,-0.089 2.518,2.518 0 0 0 -0.452,0.038 1.715,1.715 0 0 0 -1.001,0.546 1.791,1.791 0 0 0 -0.22,0.305 q -0.303,0.528 -0.303,1.325 a 3.244,3.244 0 0 0 0.041,0.526 2.399,2.399 0 0 0 0.201,0.654 2.131,2.131 0 0 0 0.047,0.092 1.755,1.755 0 0 0 0.641,0.681 1.806,1.806 0 0 0 0.414,0.185 2.082,2.082 0 0 0 0.605,0.085 2.518,2.518 0 0 0 0.44,-0.037 1.729,1.729 0 0 0 1.017,-0.551 z m 10.481,0 a 1.809,1.809 0 0 0 0.215,-0.296 q 0.312,-0.533 0.312,-1.339 a 3.806,3.806 0 0 0 -0.001,-0.103 q -0.026,-0.947 -0.528,-1.514 a 1.698,1.698 0 0 0 -0.788,-0.508 2.179,2.179 0 0 0 -0.64,-0.089 2.518,2.518 0 0 0 -0.452,0.038 1.715,1.715 0 0 0 -1.001,0.546 1.791,1.791 0 0 0 -0.22,0.305 q -0.304,0.528 -0.304,1.325 a 3.244,3.244 0 0 0 0.041,0.526 2.399,2.399 0 0 0 0.202,0.654 2.131,2.131 0 0 0 0.047,0.092 1.755,1.755 0 0 0 0.64,0.681 1.806,1.806 0 0 0 0.414,0.185 2.082,2.082 0 0 0 0.606,0.085 2.518,2.518 0 0 0 0.439,-0.037 1.729,1.729 0 0 0 1.018,-0.551 z m -13.215,-1.635 a 3.284,3.284 0 0 0 0.031,0.469 q 0.07,0.484 0.297,0.781 a 1.063,1.063 0 0 0 0.692,0.408 1.61,1.61 0 0 0 0.273,0.022 1.506,1.506 0 0 0 0.397,-0.049 1.048,1.048 0 0 0 0.57,-0.379 1.392,1.392 0 0 0 0.216,-0.422 q 0.064,-0.195 0.092,-0.433 a 3.416,3.416 0 0 0 0.022,-0.397 3.235,3.235 0 0 0 -0.031,-0.461 q -0.034,-0.234 -0.105,-0.425 a 1.335,1.335 0 0 0 -0.194,-0.354 1.067,1.067 0 0 0 -0.664,-0.396 1.635,1.635 0 0 0 -0.311,-0.028 q -0.637,0 -0.961,0.418 a 1.341,1.341 0 0 0 -0.208,0.403 q -0.116,0.348 -0.116,0.843 z m 10.48,0 a 3.284,3.284 0 0 0 0.031,0.469 q 0.07,0.484 0.297,0.781 a 1.063,1.063 0 0 0 0.693,0.408 1.61,1.61 0 0 0 0.272,0.022 1.506,1.506 0 0 0 0.398,-0.049 1.048,1.048 0 0 0 0.569,-0.379 1.392,1.392 0 0 0 0.217,-0.422 q 0.063,-0.195 0.091,-0.433 a 3.416,3.416 0 0 0 0.022,-0.397 3.235,3.235 0 0 0 -0.031,-0.461 q -0.033,-0.234 -0.105,-0.425 a 1.335,1.335 0 0 0 -0.194,-0.354 1.067,1.067 0 0 0 -0.663,-0.396 1.635,1.635 0 0 0 -0.312,-0.028 q -0.636,0 -0.961,0.418 a 1.341,1.341 0 0 0 -0.208,0.403 q -0.116,0.348 -0.116,0.843 z m -13.918,-1.664 a 1.822,1.822 0 0 0 -0.353,0.032 q -0.395,0.078 -0.604,0.349 a 1.11,1.11 0 0 0 -0.16,0.306 q -0.133,0.371 -0.133,0.977 0,0.903 0.301,1.291 a 0.941,0.941 0 0 0 0.477,0.322 q 0.213,0.067 0.488,0.067 a 1.293,1.293 0 0 0 0.367,-0.049 0.933,0.933 0 0 0 0.524,-0.386 q 0.209,-0.312 0.269,-0.817 a 3.715,3.715 0 0 0 0.023,-0.435 3.831,3.831 0 0 0 -0.023,-0.437 q -0.055,-0.477 -0.24,-0.766 a 1.076,1.076 0 0 0 -0.029,-0.044 0.946,0.946 0 0 0 -0.603,-0.381 1.5,1.5 0 0 0 -0.304,-0.029 z"
     id="bottom_labelLayer"
     stroke="#777777"
     fill="#777777"
     style="font-size:12px;fill:#777777;fill-rule:evenodd;stroke:#777777;stroke-width:0.25mm;stroke-linecap:round"
     vector-effect="non-scaling-stroke" />
  <path
     d="m 0,0 v 13.75 h 3 v 10.5 H 0 v 10.5 h 3 v 10.5 H 0 v 10.5 h 3 v 10.5 H 0 V 76.75 80 h 14.25 v -3 h 10.5 v 3 h 10.5 v -3 h 10.5 v 3 H 56.25 60 V 66.25 h -3 v -10.5 h 3 v -10.5 h -3 v -10.5 h 3 v -10.5 h -3 v -10.5 h 3 V 3.25 0 Z"
     id="back_outsideCutPath"
     stroke="#FF0000"
     stroke-width="0.1"
     style="font-size:12px;fill:none;fill-rule:evenodd;stroke:#ff0000;stroke-width:0.1;stroke-linecap:round"
     vector-effect="non-scaling-stroke" />
  <path
     id="path844"
     style="fill:none;stroke:#ff0000;stroke-width:0.1;stroke-linecap:round;stroke-linejoin:round;stroke-miterlimit:4;stroke-dasharray:none;stroke-opacity:1"
     d="m 30.000258,10.05 c -1.104569,0 -1.818436,0.910313 -1.999878,1.999877 l -0.815971,4.898409 a 4.435058,4.435058 0 0 0 -1.619539,3.426665 4.435058,4.435058 0 0 0 4.435388,4.434871 4.435058,4.435058 0 0 0 4.434872,-4.434871 4.435058,4.435058 0 0 0 -1.624708,-3.430799 L 32.000135,12.049877 C 31.823664,10.984281 31.104828,10.05 30.000258,10.05 Z" />
  <path
     id="path844-5"
     style="fill:none;stroke:#ff0000;stroke-width:0.1;stroke-linecap:round;stroke-linejoin:round;stroke-miterlimit:4;stroke-dasharray:none;stroke-opacity:1"
     d="m 30.000258,50.05 c -1.104568,0 -1.818437,0.910312 -1.999877,1.999877 l -0.815972,4.898409 a 4.435058,4.435058 0 0 0 -1.61954,3.426664 4.435058,4.435058 0 0 0 4.435389,4.434871 4.435058,4.435058 0 0 0 4.434872,-4.434871 4.435058,4.435058 0 0 0 -1.624709,-3.430798 L 32.000135,52.049877 C 31.823663,50.984281 31.104827,50.05 30.000258,50.05 Z" />
</svg>
